<svg width="24" height="24" viewBox="0 0 24 24" fill="none" xmlns="http://www.w3.org/2000/svg">
<path d="M12.0086 5.88289C11.7976 5.88289 11.5888 5.89365 11.3832 5.91472C11.1775 5.93579 10.9747 5.967 10.7753 6.00798C10.5759 6.04896 10.3801 6.09971 10.1882 6.1596L9.62493 6.36643L9.08864 6.62538L8.58258 6.93332L8.10972 7.28699L7.67339 7.68334L7.27666 8.11929L6.9226 8.59161L6.61428 9.09721L6.35517 9.63288C6.27729 9.8161 6.20801 10.0039 6.14804 10.1957C6.08807 10.3874 6.03732 10.5832 5.99627 10.7823C5.95521 10.9815 5.92399 11.1841 5.90285 11.3896C5.8817 11.5951 5.87109 11.8036 5.87109 12.0144C5.87109 12.2253 5.88186 12.4338 5.90285 12.6393C5.92372 12.8432 5.9549 13.0459 5.99627 13.2466C6.03732 13.4465 6.08807 13.6415 6.14804 13.8333C6.20801 14.025 6.27721 14.2128 6.35517 14.3961L6.61428 14.9318L6.9226 15.4373L7.27666 15.9097L7.67339 16.3456L8.10972 16.742L8.58258 17.0957L9.08864 17.4036L9.62493 17.6625L10.1882 17.8694L10.7753 18.021C10.9762 18.0623 11.1791 18.0935 11.3832 18.1143C11.591 18.1355 11.7997 18.1461 12.0086 18.1461C12.2197 18.1461 12.4284 18.1353 12.634 18.1143C12.8381 18.0935 13.041 18.0623 13.2419 18.021L13.8291 17.8694L14.3924 17.6625L14.9286 17.4036L15.4347 17.0957L15.9076 16.742L16.344 16.3456L16.7407 15.9097L17.0948 15.4373L17.4031 14.9318L17.6622 14.3961L17.8693 13.8333C17.9293 13.6415 17.98 13.4458 18.0211 13.2466L18.1145 12.6392C18.1356 12.4337 18.1463 12.2252 18.1463 12.0144C18.1463 11.8035 18.1356 11.595 18.1145 11.3895C18.0936 11.1856 18.0625 10.983 18.0211 10.7823C17.98 10.5824 17.9293 10.3874 17.8693 10.1956L17.6622 9.6328L17.4031 9.09714L17.0948 8.59153L16.7407 8.11921L16.344 7.68327L15.9076 7.28692L15.4347 6.93324L14.9286 6.62531L14.3924 6.36635L13.8291 6.15953L13.2419 6.00791L12.634 5.91464C12.4262 5.89342 12.2175 5.8828 12.0086 5.88281V5.88289ZM12.0086 7.99927C12.1482 7.99927 12.2859 8.00619 12.4215 8.01988L12.8213 8.08039L13.2075 8.1788L13.5774 8.31312L13.929 8.4815L14.2596 8.68179L14.5687 8.91222L14.8536 9.17072L15.1123 9.45535L15.343 9.76413L15.5435 10.0952L15.7119 10.4466C15.7625 10.5668 15.8074 10.6901 15.8464 10.8161C15.8855 10.9421 15.9183 11.0709 15.9449 11.2021C15.9714 11.3332 15.991 11.4667 16.0054 11.6023L16.026 12.0148C16.026 12.1542 16.019 12.2919 16.0054 12.4275C15.9917 12.5631 15.9715 12.6966 15.9449 12.8277C15.9182 12.9588 15.8853 13.0876 15.8464 13.2136L15.7119 13.5832L15.5435 13.9345L15.343 14.2655L15.1123 14.5744L14.8536 14.859L14.5687 15.1175L14.2596 15.3479L13.929 15.5482L13.5774 15.7166L13.2075 15.8509L12.8213 15.9493L12.4215 16.0098C12.2843 16.0235 12.1465 16.0304 12.0086 16.0304C11.8706 16.0304 11.7328 16.0235 11.5955 16.0098L11.1957 15.9493C11.0645 15.9227 10.9356 15.8898 10.8094 15.8509L10.4396 15.7166L10.088 15.5482L9.7574 15.3479L9.44832 15.1175L9.16338 14.859L8.90465 14.5744L8.674 14.2655L8.47347 13.9345L8.30509 13.5832L8.17054 13.2136L8.07213 12.8277L8.01162 12.4275C7.99786 12.2904 7.99098 12.1526 7.99101 12.0148C7.99098 11.877 7.99786 11.7393 8.01162 11.6023C8.02523 11.4667 8.04545 11.3332 8.07213 11.2021C8.09854 11.0719 8.13141 10.9431 8.17062 10.8162L8.30517 10.4466L8.47355 10.0953L8.67407 9.7642L8.90473 9.45543L9.16346 9.17079L9.4484 8.9123L9.75748 8.68187L10.0881 8.48158L10.4397 8.3132C10.5607 8.26238 10.6842 8.21755 10.8096 8.17888L11.1959 8.08046C11.3271 8.05386 11.4608 8.03356 11.5957 8.01995C11.7329 8.0062 11.8708 7.99933 12.0087 7.99935L12.0086 7.99927Z" fill="#C2D1D9"/>
<path d="M18.3952 4.14062C18.3465 4.14063 18.2978 4.1431 18.2493 4.14801C18.2008 4.15291 18.1526 4.16025 18.1048 4.17C18.0571 4.17974 18.0098 4.19187 17.9633 4.20636C17.9167 4.22086 17.8709 4.2377 17.826 4.2568C17.7811 4.27593 17.7372 4.2973 17.6945 4.32085C17.6517 4.34434 17.6101 4.36998 17.5699 4.39766C17.5297 4.42536 17.4909 4.45508 17.4536 4.48669C17.4163 4.51827 17.3806 4.55171 17.3467 4.58688C17.3128 4.62206 17.2806 4.65894 17.2503 4.69736C17.22 4.73579 17.1917 4.77572 17.1653 4.817C17.139 4.85824 17.1148 4.90079 17.0927 4.94447C17.0705 4.98819 17.0506 5.033 17.0329 5.07872C17.0153 5.12443 16.9999 5.17101 16.9869 5.21827C16.9738 5.26553 16.9632 5.31341 16.9549 5.36174C16.9466 5.41006 16.9407 5.45876 16.9373 5.50767C16.9348 5.54232 16.9336 5.57704 16.9336 5.61177C16.9336 5.66084 16.936 5.70988 16.9409 5.7587C16.9458 5.8075 16.9531 5.85603 16.9627 5.9041C16.9724 5.95216 16.9845 5.99971 16.9989 6.04657C17.0133 6.09344 17.03 6.13955 17.049 6.18473C17.068 6.22993 17.0892 6.27415 17.1126 6.31721C17.1359 6.36027 17.1614 6.40212 17.1889 6.44261C17.2165 6.48308 17.246 6.52213 17.2774 6.55963C17.3087 6.59716 17.342 6.63309 17.3769 6.66727C17.4119 6.70144 17.4485 6.73382 17.4867 6.7643C17.5249 6.79481 17.5646 6.82337 17.6056 6.84988C17.6466 6.87639 17.6889 6.90082 17.7324 6.92308C17.7758 6.94534 17.8203 6.96541 17.8657 6.9832C17.9111 7.00097 17.9574 7.01645 18.0043 7.02956C18.0513 7.04266 18.0988 7.05339 18.1469 7.0617C18.1949 7.07005 18.2433 7.07598 18.2919 7.07946C18.3263 7.08192 18.3608 7.08315 18.3953 7.08315C18.444 7.08317 18.4927 7.08073 18.5412 7.07585C18.5897 7.07095 18.6379 7.06361 18.6857 7.05386C18.7334 7.04412 18.7807 7.03198 18.8272 7.01749C18.8738 7.00299 18.9196 6.98616 18.9645 6.96705C19.0094 6.94795 19.0533 6.9266 19.096 6.90309C19.1388 6.87956 19.1804 6.8539 19.2206 6.8262C19.2608 6.79852 19.2996 6.76883 19.3369 6.73724C19.3742 6.70563 19.4098 6.67217 19.4438 6.63698C19.4777 6.60179 19.5099 6.56492 19.5402 6.52649C19.5705 6.48807 19.5988 6.44814 19.6252 6.40686C19.6515 6.36559 19.6757 6.32301 19.6978 6.2793C19.7199 6.23559 19.7399 6.19078 19.7576 6.14506C19.7752 6.09935 19.7906 6.05277 19.8036 6.00551C19.8166 5.95825 19.8273 5.91037 19.8356 5.86204C19.8439 5.81372 19.8498 5.76502 19.8532 5.71611C19.8557 5.68146 19.8569 5.64674 19.8569 5.612C19.8569 5.56296 19.8545 5.51395 19.8496 5.46515C19.8447 5.41635 19.8374 5.36783 19.8278 5.31976C19.8181 5.27169 19.806 5.22414 19.7916 5.17729C19.7772 5.13042 19.7605 5.08431 19.7415 5.03912C19.7225 4.99392 19.7013 4.94971 19.6779 4.90665C19.6545 4.86359 19.6291 4.82174 19.6016 4.78124C19.574 4.74075 19.5445 4.70167 19.5131 4.66415C19.4817 4.62662 19.4485 4.59069 19.4136 4.5565C19.3786 4.52234 19.342 4.48996 19.3038 4.45947C19.2656 4.429 19.2259 4.40046 19.1849 4.37398C19.1439 4.34746 19.1016 4.32303 19.0581 4.30078C19.0147 4.27851 18.9702 4.25845 18.9248 4.24065C18.8794 4.22288 18.8331 4.20741 18.7862 4.19429C18.7392 4.18117 18.6916 4.17042 18.6436 4.16208C18.5956 4.15375 18.5472 4.14785 18.4986 4.14439C18.4642 4.14193 18.4297 4.1407 18.3952 4.1407V4.14062Z" fill="#C2D1D9"/>
<path d="M10.8465 0.0197548C10.1789 0.0186784 9.58323 0.021446 9.0481 0.0289809L7.61339 0.0674242C7.18836 0.0858769 6.81285 0.109941 6.47578 0.14108C6.30724 0.156611 6.14824 0.173987 5.99754 0.193132C5.85414 0.211207 5.71112 0.232253 5.56859 0.256257C5.43289 0.279323 5.3041 0.304233 5.18062 0.331297C5.05714 0.358361 4.9392 0.387579 4.82541 0.418949C4.71416 0.449624 4.60379 0.483365 4.49441 0.520133C4.38723 0.556269 4.28266 0.594559 4.1794 0.635462C3.97289 0.71727 3.77144 0.809071 3.564 0.911945C3.40439 0.991138 3.25692 1.07133 3.11683 1.15621C2.97674 1.2411 2.84404 1.33075 2.7141 1.42839C2.58028 1.52944 2.4513 1.63674 2.32759 1.74993C2.19827 1.86772 2.06617 1.99728 1.92893 2.14205C1.75648 2.32297 1.60662 2.49166 1.47361 2.6572C1.4071 2.73993 1.34482 2.82173 1.28616 2.904C1.22814 2.98508 1.17268 3.06795 1.11985 3.1525C1.06757 3.2363 1.01806 3.32165 0.970694 3.40945C0.922593 3.49877 0.877133 3.58948 0.834374 3.68148C0.746877 3.86939 0.665223 4.07175 0.583723 4.29765C0.523261 4.46465 0.46912 4.63386 0.421416 4.80494C0.372747 4.97978 0.329459 5.1627 0.290862 5.36053C0.252265 5.55836 0.218589 5.7711 0.188987 6.00638C0.157089 6.26427 0.131606 6.52292 0.112562 6.78208C0.0910337 7.06703 0.073196 7.38057 0.0585876 7.72956L0.0239887 8.88993L0.00538204 10.3044L0 12.0141L0.0157618 14.5004L0.0649692 16.3841L0.102874 17.1199L0.150237 17.7297C0.165419 17.894 0.184415 18.058 0.20721 18.2214C0.227969 18.3666 0.250266 18.4936 0.274255 18.6036C0.322929 18.8271 0.380486 19.0486 0.446788 19.2675C0.510272 19.4772 0.58287 19.6839 0.664378 19.8873C0.744493 20.0864 0.832144 20.2785 0.927484 20.4633C1.02282 20.6481 1.12585 20.8257 1.23657 20.9963C1.34728 21.167 1.46569 21.3306 1.59209 21.4872C1.71835 21.6438 1.85265 21.7938 1.99444 21.9365C2.13645 22.0795 2.28622 22.2156 2.44407 22.3449C2.60379 22.4757 2.76981 22.5986 2.94153 22.7132C3.10092 22.8198 3.25861 22.9174 3.41746 23.0069C3.57631 23.0965 3.73654 23.1778 3.90123 23.2517C4.06592 23.3255 4.23476 23.392 4.41114 23.4519C4.58752 23.5117 4.77128 23.5649 4.96549 23.6121C5.15971 23.6593 5.3653 23.7008 5.58289 23.7369C5.80048 23.773 6.03306 23.804 6.28156 23.8307C6.53006 23.8574 6.79517 23.8794 7.08003 23.8979C7.36489 23.9163 7.66937 23.9311 7.99652 23.9429C8.50189 23.9612 9.26692 23.9719 10.1491 23.976L13.0051 23.9702L15.7095 23.9323L16.7378 23.9034L17.4077 23.869C17.5515 23.8573 17.6922 23.8435 17.8279 23.8272C17.9637 23.811 18.0977 23.7925 18.2281 23.7714C18.3585 23.7503 18.4859 23.7268 18.6112 23.7007C18.735 23.6749 18.8581 23.6461 18.9805 23.6143C19.1017 23.5836 19.2212 23.5486 19.3395 23.5115C19.4577 23.4743 19.5747 23.4342 19.6911 23.3911C19.8081 23.3478 19.924 23.3016 20.0387 23.2527C20.1543 23.2034 20.2697 23.1509 20.3855 23.095C20.5633 23.0094 20.7065 22.938 20.8322 22.8682C20.9505 22.8033 21.0643 22.7308 21.1731 22.6511C21.2805 22.5721 21.3872 22.4821 21.5102 22.3688C21.6332 22.2554 21.7726 22.1189 21.9452 21.9462C22.0969 21.7946 22.2249 21.6628 22.3352 21.5429C22.4455 21.4231 22.5385 21.3152 22.62 21.2112C22.6977 21.1126 22.77 21.0099 22.8368 20.9035C22.9019 20.7997 22.9619 20.6919 23.023 20.5724C23.115 20.3925 23.1968 20.2259 23.2701 20.0651C23.3412 19.9102 23.4062 19.7525 23.4649 19.5924C23.5227 19.4336 23.5728 19.2721 23.6149 19.1084C23.6583 18.94 23.6956 18.7622 23.7279 18.5673C23.7602 18.3723 23.7875 18.1601 23.8112 17.9231C23.8349 17.6861 23.855 17.4243 23.8727 17.13L23.9196 16.1423L23.9599 14.9138L23.9886 13.5453L23.9997 12.1142L23.974 9.30366L23.9397 8.04479L23.8928 6.96392L23.8343 6.12124C23.8131 5.88674 23.7902 5.70206 23.7659 5.57719C23.739 5.43923 23.709 5.3019 23.6758 5.16531C23.6435 5.03241 23.608 4.9003 23.5693 4.76912C23.5316 4.64131 23.4906 4.51448 23.4464 4.38876C23.4028 4.26459 23.3565 4.14303 23.308 4.02409C23.2596 3.90514 23.2072 3.78897 23.1526 3.67525C23.098 3.56154 23.0408 3.45059 22.9807 3.34218C22.9207 3.23377 22.8581 3.12805 22.7927 3.02494C22.7272 2.92184 22.6591 2.82135 22.5881 2.72355C22.5176 2.62606 22.444 2.5308 22.3675 2.43791C22.2914 2.34554 22.2123 2.25558 22.1305 2.1682C22.0488 2.08092 21.9644 1.99625 21.8773 1.91432C21.7902 1.83236 21.7005 1.75301 21.6079 1.67628C21.515 1.59929 21.4197 1.52521 21.3222 1.45415C21.2237 1.38236 21.1229 1.31359 21.0202 1.24794C20.916 1.18135 20.8099 1.11787 20.702 1.05757C20.5922 0.99626 20.4807 0.938109 20.3676 0.88319C20.1798 0.791925 20.0062 0.710965 19.8358 0.639153C19.6682 0.567884 19.4974 0.504586 19.3238 0.449473C19.1493 0.394499 18.9676 0.347368 18.7677 0.306695C18.5678 0.266022 18.3498 0.232115 18.1031 0.203283C17.8564 0.17445 17.5809 0.151154 17.2658 0.131779C16.9507 0.112403 16.5964 0.0971785 16.1917 0.0848766L14.8165 0.0541225L13.076 0.0335939L10.8472 0.0199074L10.8465 0.0197548ZM12.004 2.13429L15.2181 2.15259L16.4306 2.17596C16.7645 2.18534 17.0193 2.19634 17.1687 2.20902C17.3632 2.2254 17.5485 2.24593 17.7258 2.27053C17.8958 2.29402 18.0651 2.32323 18.2332 2.35811C18.3947 2.39194 18.5487 2.43038 18.6961 2.47374C18.8435 2.51711 18.9842 2.5657 19.1193 2.61944C19.2544 2.67319 19.3836 2.73231 19.5079 2.79705C19.6312 2.8613 19.7511 2.93201 19.867 3.00887C19.9823 3.08538 20.0935 3.1678 20.2014 3.2566C20.3094 3.34541 20.414 3.44059 20.5162 3.54239C20.6241 3.6498 20.7236 3.75921 20.8153 3.87208C20.9067 3.98425 20.9912 4.10182 21.0685 4.22414C21.1466 4.34821 21.217 4.47699 21.2793 4.60973C21.343 4.74505 21.4002 4.88806 21.4515 5.04006C21.5029 5.19207 21.5486 5.35361 21.5892 5.52622C21.6316 5.70922 21.6671 5.89375 21.6957 6.07942C21.7265 6.27625 21.7528 6.48615 21.7751 6.71089C21.7974 6.93563 21.8158 7.17528 21.831 7.4317C21.8432 7.63737 21.8538 7.90878 21.8628 8.22932L21.8853 9.32226L21.9025 11.9995L21.8829 14.6741L21.8594 15.7639L21.827 16.5565C21.8046 16.9277 21.7809 17.2397 21.7526 17.5112C21.7384 17.647 21.723 17.7726 21.7059 17.8905C21.69 18.0019 21.671 18.1128 21.6491 18.2231C21.6291 18.3238 21.6059 18.4238 21.5795 18.523C21.5543 18.6176 21.5258 18.7114 21.4943 18.8041C21.4625 18.8973 21.4279 18.9895 21.3906 19.0806C21.3511 19.1768 21.3094 19.2721 21.2656 19.3664C21.2266 19.4506 21.1857 19.5325 21.1423 19.6122C21.0994 19.6912 21.0539 19.7686 21.0057 19.8444C20.9581 19.9195 20.9081 19.9925 20.8558 20.0632C20.8038 20.1336 20.7493 20.2021 20.6923 20.2686C20.6356 20.3348 20.5764 20.3989 20.515 20.4608C20.4535 20.5227 20.3896 20.5825 20.3235 20.6401C20.2574 20.6978 20.1888 20.7531 20.1179 20.8065C20.0469 20.8599 19.9735 20.9111 19.8976 20.9601C19.8217 21.0092 19.7434 21.0562 19.6626 21.1011C19.5818 21.146 19.4985 21.1889 19.4127 21.2298C19.3255 21.2712 19.2371 21.31 19.1475 21.3462C19.055 21.3835 18.9614 21.4182 18.8669 21.4504C18.6747 21.5159 18.4719 21.5734 18.2585 21.623C18.0361 21.6743 17.8116 21.7164 17.5856 21.7489C17.4987 21.7616 17.299 21.7735 17.013 21.7846L15.9231 21.8149L12.833 21.855L9.59868 21.8601L8.32852 21.8466L7.50375 21.8209L6.89558 21.7781C6.70675 21.7622 6.53114 21.7445 6.3666 21.7245C6.20206 21.7044 6.04883 21.682 5.90466 21.6568C5.76805 21.6332 5.63227 21.605 5.49755 21.5722C5.37471 21.5423 5.25313 21.5075 5.13311 21.4678C5.01739 21.4294 4.90675 21.3871 4.79911 21.3406C4.69147 21.294 4.5869 21.2431 4.48334 21.1874C4.37977 21.1317 4.27728 21.0713 4.17364 21.0054C4.09544 20.9557 4.01987 20.9055 3.94713 20.8522C3.8744 20.7989 3.80412 20.7458 3.73646 20.6901C3.6688 20.6344 3.60383 20.5771 3.54117 20.518C3.47892 20.4593 3.41881 20.3983 3.36095 20.3352C3.30328 20.2723 3.24815 20.2076 3.19526 20.1405C3.14215 20.0732 3.09155 20.004 3.04356 19.9329C2.99485 19.8608 2.94877 19.7869 2.90539 19.7115C2.86157 19.6354 2.81989 19.5566 2.7803 19.4754C2.74004 19.3927 2.70247 19.3087 2.66766 19.2235C2.63229 19.1368 2.59877 19.0473 2.56725 18.9548C2.5042 18.7699 2.44884 18.5731 2.40071 18.3632C2.35258 18.1533 2.31152 17.9303 2.27677 17.6928C2.24201 17.4552 2.21403 17.2033 2.19173 16.9356C2.17528 16.7384 2.16221 16.4312 2.15221 16.0437L2.1313 14.6655L2.13899 11.1522L2.1995 7.79499L2.24563 6.61216L2.27177 6.2212C2.28084 6.11678 2.29022 6.03944 2.29983 5.993C2.33151 5.84022 2.36342 5.69806 2.3964 5.56497C2.42722 5.43941 2.46149 5.31473 2.4992 5.19107C2.53503 5.07436 2.57278 4.96502 2.61315 4.86146C2.65207 4.76113 2.69545 4.66259 2.74316 4.56613C2.78976 4.47233 2.83981 4.38253 2.89417 4.29511C2.94853 4.20769 3.00719 4.12288 3.07116 4.03854C3.13513 3.95419 3.20402 3.87093 3.27899 3.7865C3.35395 3.70208 3.43491 3.61682 3.52272 3.52894C3.62505 3.42602 3.7316 3.32739 3.8421 3.23331C3.94644 3.14454 4.05525 3.06116 4.1681 2.9835C4.27905 2.90661 4.39284 2.83819 4.51132 2.77529C4.62981 2.7124 4.75298 2.65558 4.88253 2.60445C5.01209 2.55332 5.14818 2.50757 5.29234 2.46605C5.44379 2.42357 5.59692 2.38733 5.75135 2.35741C5.91374 2.32558 6.08619 2.29783 6.27034 2.27361C6.45448 2.24939 6.65039 2.22847 6.85983 2.21033C7.00591 2.19772 7.25764 2.18649 7.5891 2.17704L8.79545 2.1532L12.0045 2.1336L12.004 2.13429Z" fill="#C2D1D9"/>
</svg>
