<svg width="25" height="24" viewBox="0 0 25 24" fill="none" xmlns="http://www.w3.org/2000/svg">
<g clip-path="url(#clip0)">
<path d="M12.5086 5.88533C12.2976 5.88533 12.0888 5.8961 11.8832 5.91716C11.6775 5.93823 11.4747 5.96945 11.2753 6.01043C11.0759 6.05141 10.8801 6.10215 10.6882 6.16205L10.1249 6.36887L9.58864 6.62783L9.08258 6.93576L8.60972 7.28943L8.17339 7.68578L7.77666 8.12173L7.4226 8.59405L7.11428 9.09965L6.85517 9.63532C6.77729 9.81854 6.70801 10.0064 6.64804 10.1981C6.58807 10.3899 6.53732 10.5856 6.49627 10.7848C6.45521 10.9839 6.42399 11.1865 6.40285 11.392C6.3817 11.5975 6.37109 11.8061 6.37109 12.0169C6.37109 12.2277 6.38186 12.4362 6.40285 12.6417C6.42372 12.8456 6.4549 13.0483 6.49627 13.2491C6.53732 13.449 6.58807 13.644 6.64804 13.8357C6.70801 14.0275 6.77721 14.2152 6.85517 14.3985L7.11428 14.9342L7.4226 15.4397L7.77666 15.9121L8.17339 16.3481L8.60972 16.7444L9.08258 17.0981L9.58864 17.406L10.1249 17.665L10.6882 17.8718L11.2753 18.0234C11.4762 18.0648 11.6791 18.0959 11.8832 18.1168C12.091 18.138 12.2997 18.1486 12.5086 18.1485C12.7197 18.1485 12.9284 18.1378 13.134 18.1168C13.3381 18.0959 13.541 18.0648 13.7419 18.0234L14.3291 17.8718L14.8924 17.665L15.4286 17.406L15.9347 17.0981L16.4076 16.7444L16.844 16.3481L17.2407 15.9121L17.5948 15.4397L17.9031 14.9342L18.1622 14.3985L18.3693 13.8357C18.4293 13.644 18.48 13.4482 18.5211 13.2491L18.6145 12.6417C18.6356 12.4361 18.6463 12.2276 18.6463 12.0168C18.6463 11.806 18.6356 11.5975 18.6145 11.392C18.5936 11.1881 18.5625 10.9854 18.5211 10.7847C18.48 10.5848 18.4293 10.3899 18.3693 10.1981L18.1622 9.63525L17.9031 9.09958L17.5948 8.59397L17.2407 8.12166L16.844 7.68571L16.4076 7.28936L15.9347 6.93568L15.4286 6.62775L14.8924 6.36879L14.3291 6.16197L13.7419 6.01035L13.134 5.91709C12.9262 5.89586 12.7175 5.88524 12.5086 5.88525V5.88533ZM12.5086 8.00171C12.6482 8.00171 12.7859 8.00863 12.9215 8.02232L13.3213 8.08283L13.7075 8.18124L14.0774 8.31556L14.429 8.48394L14.7596 8.68424L15.0687 8.91466L15.3536 9.17316L15.6123 9.45779L15.843 9.76657L16.0435 10.0976L16.2119 10.449C16.2625 10.5693 16.3074 10.6925 16.3464 10.8185C16.3855 10.9445 16.4183 11.0733 16.4449 11.2045C16.4714 11.3357 16.491 11.4691 16.5054 11.6047L16.526 12.0173C16.526 12.1567 16.519 12.2943 16.5054 12.4299C16.4917 12.5655 16.4715 12.699 16.4449 12.8301C16.4182 12.9612 16.3853 13.09 16.3464 13.2161L16.2119 13.5856L16.0435 13.937L15.843 14.268L15.6123 14.5768L15.3536 14.8615L15.0687 15.12L14.7596 15.3504L14.429 15.5507L14.0774 15.7191L13.7075 15.8534L13.3213 15.9518L12.9215 16.0122C12.7843 16.026 12.6465 16.0329 12.5086 16.0328C12.3706 16.0329 12.2328 16.026 12.0955 16.0122L11.6957 15.9518C11.5645 15.9252 11.4356 15.8923 11.3094 15.8534L10.9396 15.7191L10.588 15.5507L10.2574 15.3504L9.94832 15.12L9.66338 14.8615L9.40465 14.5768L9.174 14.268L8.97347 13.937L8.80509 13.5856L8.67054 13.2161L8.57213 12.8301L8.51162 12.4299C8.49786 12.2928 8.49098 12.1551 8.49101 12.0173C8.49098 11.8795 8.49786 11.7418 8.51162 11.6047C8.52523 11.4691 8.54545 11.3356 8.57213 11.2045C8.59854 11.0743 8.63141 10.9455 8.67062 10.8186L8.80517 10.4491L8.97355 10.0977L9.17407 9.76665L9.40473 9.45787L9.66346 9.17323L9.9484 8.91474L10.2575 8.68431L10.5881 8.48402L10.9397 8.31564C11.0607 8.26482 11.1842 8.21999 11.3096 8.18132L11.6959 8.08291C11.8271 8.0563 11.9608 8.036 12.0957 8.0224C12.2329 8.00864 12.3708 8.00177 12.5087 8.00179L12.5086 8.00171Z" fill="url(#paint0_linear)"/>
<path d="M18.8952 4.14111C18.8465 4.14112 18.7978 4.14359 18.7493 4.14849C18.7008 4.15339 18.6526 4.16073 18.6048 4.17048C18.5571 4.18022 18.5098 4.19236 18.4633 4.20685C18.4167 4.22135 18.3709 4.23818 18.326 4.25729C18.2811 4.27642 18.2372 4.29779 18.1945 4.32134C18.1517 4.34483 18.1101 4.37047 18.0699 4.39815C18.0297 4.42585 17.9909 4.45557 17.9536 4.48718C17.9163 4.51876 17.8806 4.5522 17.8467 4.58736C17.8128 4.62255 17.7806 4.65943 17.7503 4.69785C17.72 4.73628 17.6917 4.77621 17.6653 4.81748C17.639 4.85873 17.6148 4.90128 17.5927 4.94496C17.5705 4.98868 17.5506 5.03348 17.5329 5.07921C17.5153 5.12492 17.4999 5.1715 17.4869 5.21876C17.4738 5.26601 17.4632 5.3139 17.4549 5.36223C17.4466 5.41055 17.4407 5.45925 17.4373 5.50816C17.4348 5.5428 17.4336 5.57753 17.4336 5.61226C17.4336 5.66133 17.436 5.71037 17.4409 5.75919C17.4458 5.80799 17.4531 5.85652 17.4627 5.90459C17.4724 5.95265 17.4845 6.0002 17.4989 6.04706C17.5133 6.09392 17.53 6.14004 17.549 6.18522C17.568 6.23042 17.5892 6.27463 17.6126 6.3177C17.6359 6.36075 17.6614 6.40261 17.6889 6.4431C17.7165 6.48357 17.746 6.52262 17.7774 6.56012C17.8087 6.59765 17.842 6.63357 17.8769 6.66776C17.9119 6.70193 17.9485 6.73431 17.9867 6.76479C18.0249 6.79529 18.0646 6.82386 18.1056 6.85037C18.1466 6.87688 18.1889 6.90131 18.2324 6.92356C18.2758 6.94583 18.3203 6.9659 18.3657 6.98369C18.4111 7.00146 18.4574 7.01693 18.5043 7.03005C18.5513 7.04315 18.5988 7.05388 18.6469 7.06219C18.6949 7.07054 18.7433 7.07647 18.7919 7.07995C18.8263 7.08241 18.8608 7.08364 18.8953 7.08364C18.944 7.08366 18.9927 7.08122 19.0412 7.07634C19.0897 7.07144 19.1379 7.0641 19.1857 7.05435C19.2334 7.04461 19.2807 7.03247 19.3272 7.01798C19.3738 7.00348 19.4196 6.98665 19.4645 6.96754C19.5094 6.94844 19.5533 6.92709 19.596 6.90357C19.6388 6.88005 19.6804 6.85439 19.7206 6.82669C19.7608 6.799 19.7996 6.76932 19.8369 6.73773C19.8742 6.70612 19.9098 6.67266 19.9438 6.63747C19.9777 6.60228 20.0099 6.56541 20.0402 6.52698C20.0705 6.48855 20.0988 6.44863 20.1252 6.40735C20.1515 6.36607 20.1757 6.3235 20.1978 6.27979C20.2199 6.23607 20.2399 6.19127 20.2576 6.14555C20.2752 6.09983 20.2906 6.05326 20.3036 6.006C20.3166 5.95874 20.3273 5.91086 20.3356 5.86253C20.3439 5.81421 20.3498 5.76551 20.3532 5.7166C20.3557 5.68195 20.3569 5.64723 20.3569 5.61249C20.3569 5.56345 20.3545 5.51444 20.3496 5.46564C20.3447 5.41684 20.3374 5.36831 20.3278 5.32025C20.3181 5.27218 20.306 5.22463 20.2916 5.17778C20.2772 5.13091 20.2605 5.0848 20.2415 5.03961C20.2225 4.99441 20.2013 4.9502 20.1779 4.90713C20.1545 4.86408 20.1291 4.82223 20.1016 4.78173C20.074 4.74124 20.0445 4.70216 20.0131 4.66463C19.9817 4.62711 19.9485 4.59118 19.9136 4.55699C19.8786 4.52283 19.842 4.49044 19.8038 4.45996C19.7656 4.42949 19.7259 4.40095 19.6849 4.37446C19.6439 4.34795 19.6016 4.32352 19.5581 4.30127C19.5147 4.279 19.4702 4.25893 19.4248 4.24114C19.3794 4.22337 19.3331 4.2079 19.2862 4.19478C19.2392 4.18166 19.1916 4.1709 19.1436 4.16257C19.0956 4.15424 19.0472 4.14834 18.9986 4.14488C18.9642 4.14242 18.9297 4.14119 18.8952 4.14119V4.14111Z" fill="url(#paint1_linear)"/>
<path d="M11.3465 0.0214638C10.6789 0.0203874 10.0832 0.023155 9.5481 0.0306898L8.11339 0.0691331C7.68836 0.0875859 7.31285 0.11165 6.97578 0.142789C6.80724 0.15832 6.64824 0.175696 6.49754 0.194841C6.35414 0.212916 6.21112 0.233962 6.06859 0.257966C5.93289 0.281032 5.8041 0.305942 5.68062 0.333006C5.55714 0.36007 5.4392 0.389288 5.32541 0.420658C5.21416 0.451333 5.10379 0.485074 4.99441 0.521842C4.88723 0.557978 4.78266 0.596268 4.6794 0.637171C4.47289 0.718979 4.27144 0.81078 4.064 0.913654C3.90439 0.992847 3.75692 1.07304 3.61683 1.15792C3.47674 1.24281 3.34404 1.33246 3.2141 1.4301C3.08028 1.53115 2.9513 1.63845 2.82759 1.75164C2.69827 1.86943 2.56617 1.99899 2.42893 2.14376C2.25648 2.32468 2.10662 2.49337 1.97361 2.6589C1.9071 2.74163 1.84482 2.82344 1.78616 2.90571C1.72814 2.98679 1.67268 3.06966 1.61985 3.15421C1.56757 3.23801 1.51806 3.32336 1.47069 3.41116C1.42259 3.50048 1.37713 3.59119 1.33437 3.68319C1.24688 3.8711 1.16522 4.07346 1.08372 4.29936C1.02326 4.46635 0.96912 4.63557 0.921416 4.80665C0.872747 4.98149 0.829459 5.16441 0.790862 5.36224C0.752265 5.56007 0.718589 5.77281 0.688987 6.00808C0.657089 6.26598 0.631606 6.52463 0.612562 6.78379C0.591034 7.06873 0.573196 7.38228 0.558588 7.73127L0.523989 8.89164L0.505382 10.3061L0.5 12.0158L0.515762 14.5021L0.564969 16.3859L0.602874 17.1217L0.650237 17.7314C0.665419 17.8957 0.684415 18.0597 0.70721 18.2231C0.727969 18.3683 0.750266 18.4953 0.774255 18.6053C0.822929 18.8288 0.880486 19.0503 0.946788 19.2693C1.01027 19.4789 1.08287 19.6857 1.16438 19.889C1.24449 20.0881 1.33214 20.2802 1.42748 20.465C1.52282 20.6498 1.62585 20.8274 1.73657 20.998C1.84728 21.1687 1.96569 21.3323 2.09209 21.4889C2.21835 21.6455 2.35265 21.7955 2.49444 21.9382C2.63645 22.0812 2.78622 22.2173 2.94407 22.3466C3.10379 22.4774 3.26981 22.6003 3.44153 22.7149C3.60092 22.8215 3.75861 22.9191 3.91746 23.0086C4.07631 23.0982 4.23654 23.1795 4.40123 23.2534C4.56592 23.3273 4.73476 23.3938 4.91114 23.4536C5.08752 23.5134 5.27128 23.5666 5.46549 23.6138C5.65971 23.661 5.8653 23.7025 6.08289 23.7386C6.30048 23.7747 6.53306 23.8057 6.78156 23.8324C7.03006 23.8591 7.29517 23.8811 7.58003 23.8996C7.86489 23.918 8.16937 23.9328 8.49652 23.9447C9.00189 23.9629 9.76692 23.9736 10.6491 23.9777L13.5051 23.9719L16.2095 23.934L17.2378 23.9051L17.9077 23.8707C18.0515 23.859 18.1922 23.8452 18.3279 23.8289C18.4637 23.8127 18.5977 23.7942 18.7281 23.7731C18.8585 23.7521 18.9859 23.7285 19.1112 23.7024C19.235 23.6766 19.3581 23.6478 19.4805 23.616C19.6017 23.5853 19.7212 23.5503 19.8395 23.5132C19.9577 23.476 20.0747 23.4359 20.1911 23.3928C20.3081 23.3495 20.424 23.3033 20.5387 23.2544C20.6543 23.2052 20.7697 23.1526 20.8855 23.0967C21.0633 23.0111 21.2065 22.9397 21.3322 22.8699C21.4505 22.8051 21.5643 22.7325 21.6731 22.6528C21.7805 22.5738 21.8872 22.4838 22.0102 22.3705C22.1332 22.2571 22.2726 22.1206 22.4452 21.9479C22.5969 21.7963 22.7249 21.6645 22.8352 21.5446C22.9455 21.4248 23.0385 21.3169 23.12 21.2129C23.1977 21.1143 23.27 21.0116 23.3368 20.9052C23.4019 20.8014 23.4619 20.6937 23.523 20.5741C23.615 20.3942 23.6968 20.2276 23.7701 20.0668C23.8412 19.9119 23.9062 19.7542 23.9649 19.5941C24.0227 19.4353 24.0728 19.2738 24.1149 19.1101C24.1583 18.9417 24.1956 18.764 24.2279 18.569C24.2602 18.374 24.2875 18.1618 24.3112 17.9248C24.3349 17.6879 24.355 17.426 24.3727 17.1317L24.4196 16.144L24.4599 14.9156L24.4886 13.547L24.4997 12.116L24.474 9.30537L24.4397 8.0465L24.3928 6.96563L24.3343 6.12295C24.3131 5.88845 24.2902 5.70377 24.2659 5.5789C24.239 5.44094 24.209 5.30361 24.1758 5.16702C24.1435 5.03412 24.108 4.90201 24.0693 4.77082C24.0316 4.64301 23.9906 4.51619 23.9464 4.39047C23.9028 4.2663 23.8565 4.14474 23.808 4.02579C23.7596 3.90685 23.7072 3.79067 23.6526 3.67696C23.598 3.56324 23.5408 3.4523 23.4807 3.34389C23.4207 3.23548 23.3581 3.12976 23.2927 3.02665C23.2272 2.92355 23.1591 2.82306 23.0881 2.72526C23.0176 2.62777 22.944 2.53251 22.8675 2.43962C22.7914 2.34724 22.7123 2.25729 22.6305 2.16991C22.5488 2.08263 22.4644 1.99796 22.3773 1.91603C22.2902 1.83406 22.2005 1.75472 22.1079 1.67798C22.015 1.601 21.9197 1.52692 21.8222 1.45586C21.7237 1.38407 21.6229 1.3153 21.5202 1.24965C21.416 1.18306 21.3099 1.11958 21.202 1.05928C21.0922 0.997969 20.9807 0.939818 20.8676 0.884899C20.6798 0.793634 20.5062 0.712674 20.3358 0.640862C20.1682 0.569593 19.9974 0.506295 19.8238 0.451182C19.6493 0.396208 19.4676 0.349077 19.2677 0.308404C19.0678 0.267731 18.8498 0.233824 18.6031 0.204992C18.3564 0.176159 18.0809 0.152863 17.7658 0.133488C17.4507 0.114112 17.0964 0.0988875 16.6917 0.0865856L15.3165 0.0558314L13.576 0.0353029L11.3472 0.0216163L11.3465 0.0214638ZM12.504 2.136L15.7181 2.1543L16.9306 2.17767C17.2645 2.18705 17.5193 2.19805 17.6687 2.21073C17.8632 2.22711 18.0485 2.24764 18.2258 2.27224C18.3958 2.29573 18.5651 2.32493 18.7332 2.35981C18.8947 2.39364 19.0487 2.43209 19.1961 2.47545C19.3435 2.51882 19.4842 2.56741 19.6193 2.62115C19.7544 2.6749 19.8836 2.73402 20.0079 2.79876C20.1312 2.86301 20.2511 2.93372 20.367 3.01058C20.4823 3.08709 20.5935 3.16951 20.7014 3.25831C20.8094 3.34712 20.914 3.4423 21.0162 3.5441C21.1241 3.65151 21.2236 3.76092 21.3153 3.87379C21.4067 3.98596 21.4912 4.10352 21.5685 4.22585C21.6466 4.34992 21.717 4.4787 21.7793 4.61144C21.843 4.74676 21.9002 4.88977 21.9515 5.04177C22.0029 5.19378 22.0486 5.35532 22.0892 5.52793C22.1316 5.71093 22.1671 5.89546 22.1957 6.08113C22.2265 6.27796 22.2528 6.48786 22.2751 6.7126C22.2974 6.93734 22.3158 7.17699 22.331 7.43341C22.3432 7.63908 22.3538 7.91049 22.3628 8.23103L22.3853 9.32397L22.4025 12.0012L22.3829 14.6758L22.3594 15.7656L22.327 16.5582C22.3046 16.9294 22.2809 17.2414 22.2526 17.5129C22.2384 17.6487 22.223 17.7743 22.2059 17.8922C22.19 18.0036 22.171 18.1145 22.1491 18.2248C22.1291 18.3255 22.1059 18.4255 22.0795 18.5247C22.0543 18.6193 22.0258 18.7131 21.9943 18.8059C21.9625 18.899 21.9279 18.9912 21.8906 19.0823C21.8511 19.1785 21.8094 19.2738 21.7656 19.3681C21.7266 19.4523 21.6857 19.5342 21.6423 19.6139C21.5994 19.6929 21.5539 19.7703 21.5057 19.8461C21.4581 19.9213 21.4081 19.9942 21.3558 20.0649C21.3038 20.1353 21.2493 20.2038 21.1923 20.2703C21.1356 20.3365 21.0764 20.4006 21.015 20.4625C20.9535 20.5244 20.8896 20.5842 20.8235 20.6418C20.7574 20.6995 20.6888 20.7549 20.6179 20.8082C20.5469 20.8616 20.4735 20.9128 20.3976 20.9618C20.3217 21.0109 20.2434 21.0579 20.1626 21.1028C20.0818 21.1477 19.9985 21.1907 19.9127 21.2315C19.8255 21.2729 19.7371 21.3117 19.6475 21.3479C19.555 21.3852 19.4614 21.42 19.3669 21.4521C19.1747 21.5176 18.9719 21.5751 18.7585 21.6247C18.5361 21.676 18.3116 21.7181 18.0856 21.7506C17.9987 21.7633 17.799 21.7752 17.513 21.7863L16.4231 21.8166L13.333 21.8567L10.0987 21.8618L8.82852 21.8483L8.00375 21.8226L7.39558 21.7798C7.20675 21.7639 7.03114 21.7462 6.8666 21.7262C6.70206 21.7061 6.54883 21.6837 6.40466 21.6585C6.26805 21.6349 6.13227 21.6067 5.99755 21.5739C5.87471 21.544 5.75313 21.5092 5.63311 21.4695C5.51739 21.4311 5.40675 21.3888 5.29911 21.3423C5.19147 21.2958 5.0869 21.2448 4.98334 21.1891C4.87977 21.1334 4.77728 21.073 4.67364 21.0071C4.59544 20.9575 4.51987 20.9072 4.44713 20.8539C4.3744 20.8006 4.30412 20.7475 4.23646 20.6918C4.1688 20.6361 4.10383 20.5788 4.04117 20.5197C3.97892 20.461 3.91881 20.4 3.86095 20.3369C3.80328 20.274 3.74815 20.2093 3.69526 20.1422C3.64215 20.0749 3.59155 20.0057 3.54356 19.9346C3.49485 19.8625 3.44877 19.7886 3.40539 19.7132C3.36157 19.6371 3.31989 19.5583 3.2803 19.4772C3.24004 19.3944 3.20247 19.3104 3.16766 19.2252C3.13229 19.1385 3.09877 19.049 3.06725 18.9566C3.0042 18.7716 2.94884 18.5748 2.90071 18.3649C2.85258 18.155 2.81152 17.932 2.77677 17.6945C2.74201 17.4569 2.71403 17.205 2.69173 16.9373C2.67528 16.7401 2.66221 16.4329 2.65221 16.0454L2.6313 14.6672L2.63899 11.1539L2.6995 7.7967L2.74563 6.61387L2.77177 6.22291C2.78084 6.11849 2.79022 6.04114 2.79983 5.99471C2.83151 5.84193 2.86342 5.69977 2.8964 5.56668C2.92722 5.44112 2.96149 5.31644 2.9992 5.19278C3.03503 5.07607 3.07278 4.96673 3.11315 4.86317C3.15207 4.76284 3.19545 4.6643 3.24316 4.56784C3.28976 4.47404 3.33981 4.38424 3.39417 4.29682C3.44853 4.2094 3.50719 4.12459 3.57116 4.04025C3.63513 3.9559 3.70402 3.87264 3.77899 3.78821C3.85395 3.70379 3.93491 3.61853 4.02272 3.53064C4.12505 3.42773 4.2316 3.3291 4.3421 3.23502C4.44644 3.14625 4.55525 3.06287 4.6681 2.98521C4.77905 2.90832 4.89284 2.8399 5.01132 2.777C5.12981 2.71411 5.25298 2.65729 5.38253 2.60616C5.51209 2.55503 5.64818 2.50928 5.79234 2.46776C5.94379 2.42528 6.09692 2.38904 6.25135 2.35912C6.41374 2.32729 6.58619 2.29954 6.77034 2.27532C6.95448 2.2511 7.15039 2.23018 7.35983 2.21204C7.50591 2.19943 7.75764 2.1882 8.0891 2.17875L9.29545 2.15491L12.5045 2.13531L12.504 2.136Z" fill="url(#paint2_linear)"/>
</g>
<defs>
<linearGradient id="paint0_linear" x1="4.04679" y1="3.47916" x2="21.4628" y2="4.83038" gradientUnits="userSpaceOnUse">
<stop stop-color="#8C54FB"/>
<stop offset="1" stop-color="#FF3C3F"/>
</linearGradient>
<linearGradient id="paint1_linear" x1="16.8801" y1="3.56378" x2="21.028" y2="3.88318" gradientUnits="userSpaceOnUse">
<stop stop-color="#8C54FB"/>
<stop offset="1" stop-color="#FF3C3F"/>
</linearGradient>
<linearGradient id="paint2_linear" x1="-4.04432" y1="-4.6791" x2="30.0059" y2="-2.03513" gradientUnits="userSpaceOnUse">
<stop stop-color="#8C54FB"/>
<stop offset="1" stop-color="#FF3C3F"/>
</linearGradient>
<clipPath id="clip0">
<rect width="24" height="24" fill="white" transform="translate(0.5)"/>
</clipPath>
</defs>
</svg>
