<svg width="16" height="16" viewBox="0 0 16 16" fill="none" xmlns="http://www.w3.org/2000/svg">
<g clip-path="url(#clip0)">
<path d="M8.00576 3.92583C7.86506 3.92583 7.7259 3.93301 7.58878 3.94705C7.45167 3.9611 7.31645 3.98191 7.18354 4.00923C7.05063 4.03655 6.92007 4.07038 6.79213 4.11031L6.41662 4.24819L6.0591 4.42083L5.72172 4.62612L5.40648 4.8619L5.1156 5.12614L4.85111 5.41677L4.61506 5.73164L4.40952 6.06871L4.23678 6.42583C4.18486 6.54797 4.13867 6.6732 4.09869 6.80103C4.05871 6.92887 4.02488 7.05937 3.99751 7.19213C3.97014 7.32489 3.94933 7.45995 3.93523 7.59696C3.92114 7.73398 3.91406 7.87299 3.91406 8.01354C3.91406 8.15408 3.92124 8.2931 3.93523 8.43011C3.94915 8.56603 3.96993 8.70117 3.99751 8.83499C4.02488 8.96826 4.05871 9.09825 4.09869 9.22609C4.13867 9.35393 4.18481 9.4791 4.23678 9.6013L4.40952 9.95841L4.61506 10.2954L4.85111 10.6104L5.1156 10.901L5.40648 11.1652L5.72172 11.401L6.0591 11.6063L6.41662 11.7789L6.79213 11.9168L7.18354 12.0179C7.31749 12.0454 7.45274 12.0662 7.58878 12.0801C7.72733 12.0943 7.8665 12.1013 8.00576 12.1013C8.14647 12.1013 8.28563 12.0941 8.42269 12.0801C8.55874 12.0662 8.69399 12.0454 8.82794 12.0179L9.21939 11.9168L9.59491 11.7789L9.95238 11.6063L10.2898 11.401L10.605 11.1652L10.896 10.901L11.1605 10.6104L11.3965 10.2954L11.6021 9.95841L11.7748 9.6013L11.9129 9.22609C11.9529 9.09825 11.9867 8.96775 12.0141 8.83499L12.0763 8.43006C12.0904 8.29304 12.0976 8.15403 12.0976 8.01348C12.0976 7.87294 12.0904 7.73392 12.0763 7.59691C12.0624 7.461 12.0416 7.32589 12.0141 7.19208C11.9867 7.05881 11.9529 6.92887 11.9129 6.80098L11.7748 6.42578L11.6021 6.06866L11.3965 5.73159L11.1605 5.41672L10.896 5.12608L10.605 4.86185L10.2898 4.62606L9.95238 4.42078L9.59491 4.24814L9.21939 4.11026L8.82794 4.00918L8.42269 3.947C8.28417 3.93285 8.14501 3.92577 8.00576 3.92578V3.92583ZM8.00576 5.33675C8.0988 5.33675 8.1906 5.34137 8.28102 5.35049L8.54756 5.39083L8.80503 5.45644L9.05158 5.54599L9.28598 5.65824L9.50639 5.79177L9.71244 5.94539L9.9024 6.11772L10.0749 6.30747L10.2287 6.51332L10.3623 6.73404L10.4746 6.96829C10.5083 7.04845 10.5383 7.13062 10.5643 7.21463C10.5903 7.29864 10.6122 7.3845 10.6299 7.47195C10.6476 7.55939 10.6607 7.64838 10.6702 7.73874L10.684 8.01379C10.684 8.10672 10.6794 8.19847 10.6702 8.28889C10.6611 8.37931 10.6477 8.46829 10.6299 8.55569C10.6121 8.64308 10.5902 8.72894 10.5643 8.813L10.4746 9.05935L10.3623 9.2936L10.2287 9.51426L10.0749 9.72016L9.9024 9.90992L9.71244 10.0822L9.50639 10.2359L9.28598 10.3694L9.05158 10.4816L8.80503 10.5712L8.54756 10.6368L8.28102 10.6771C8.18954 10.6863 8.09765 10.6908 8.00571 10.6908C7.91375 10.6908 7.82185 10.6863 7.73036 10.6771L7.46382 10.6368C7.37632 10.6191 7.29041 10.5971 7.2063 10.5712L6.95975 10.4816L6.72534 10.3694L6.50494 10.2359L6.29888 10.0822L6.10892 9.90992L5.93644 9.72016L5.78266 9.51426L5.64898 9.2936L5.53673 9.05935L5.44703 8.813L5.38142 8.55569L5.34108 8.28889C5.3319 8.19748 5.32732 8.10566 5.32734 8.01379C5.32732 7.92194 5.3319 7.83014 5.34108 7.73874C5.35015 7.64838 5.36363 7.55934 5.38142 7.47195C5.39903 7.38516 5.42094 7.2993 5.44708 7.21468L5.53678 6.96834L5.64903 6.73409L5.78271 6.51338L5.93649 6.30752L6.10897 6.11777L6.29893 5.94544L6.50499 5.79182L6.7254 5.65829L6.9598 5.54604C7.04048 5.51216 7.12278 5.48227 7.2064 5.45649L7.46392 5.39088C7.55141 5.37315 7.6405 5.35961 7.73046 5.35054C7.82196 5.34137 7.91386 5.33679 8.00581 5.3368L8.00576 5.33675Z" fill="url(#paint0_radial)"/>
<path d="M12.2635 2.76172C12.231 2.76173 12.1985 2.76337 12.1662 2.76664C12.1339 2.76991 12.1017 2.7748 12.0699 2.7813C12.038 2.78779 12.0065 2.79588 11.9755 2.80554C11.9445 2.81521 11.9139 2.82643 11.884 2.83917C11.8541 2.85192 11.8248 2.86617 11.7963 2.88187C11.7678 2.89753 11.7401 2.91462 11.7133 2.93307C11.6865 2.95154 11.6606 2.97136 11.6357 2.99243C11.6109 3.01348 11.5871 3.03577 11.5645 3.05922C11.5418 3.08268 11.5204 3.10726 11.5002 3.13288C11.48 3.15849 11.4611 3.18511 11.4436 3.21263C11.426 3.24013 11.4098 3.2685 11.3951 3.29762C11.3804 3.32676 11.3671 3.35663 11.3553 3.38711C11.3435 3.41759 11.3333 3.44864 11.3246 3.48015C11.3159 3.51165 11.3088 3.54357 11.3033 3.57579C11.2977 3.60801 11.2938 3.64048 11.2915 3.67308C11.2899 3.69618 11.2891 3.71933 11.2891 3.74248C11.2891 3.7752 11.2907 3.80789 11.2939 3.84044C11.2972 3.87297 11.302 3.90532 11.3085 3.93737C11.3149 3.96941 11.323 4.00111 11.3326 4.03235C11.3422 4.06359 11.3533 4.09433 11.366 4.12446C11.3787 4.15459 11.3928 4.18407 11.4084 4.21277C11.424 4.24148 11.4409 4.26938 11.4593 4.29638C11.4776 4.32335 11.4973 4.34939 11.5182 4.37439C11.5392 4.39941 11.5613 4.42336 11.5846 4.44615C11.6079 4.46893 11.6324 4.49052 11.6578 4.51084C11.6833 4.53117 11.7097 4.55021 11.7371 4.56789C11.7644 4.58556 11.7926 4.60185 11.8216 4.61669C11.8505 4.63153 11.8802 4.64491 11.9105 4.65677C11.9407 4.66862 11.9716 4.67893 12.0029 4.68768C12.0342 4.69641 12.0659 4.70356 12.0979 4.7091C12.1299 4.71467 12.1622 4.71862 12.1946 4.72094C12.2175 4.72258 12.2405 4.7234 12.2635 4.7234C12.296 4.72341 12.3285 4.72179 12.3608 4.71853C12.3931 4.71527 12.4253 4.71037 12.4571 4.70388C12.489 4.69738 12.5205 4.68929 12.5515 4.67963C12.5825 4.66996 12.6131 4.65874 12.643 4.64601C12.6729 4.63327 12.7022 4.61904 12.7307 4.60336C12.7592 4.58768 12.7869 4.57057 12.8137 4.5521C12.8405 4.53365 12.8664 4.51385 12.8913 4.4928C12.9161 4.47173 12.9399 4.44942 12.9625 4.42596C12.9852 4.4025 13.0066 4.37791 13.0268 4.3523C13.047 4.32668 13.0659 4.30006 13.0834 4.27254C13.101 4.24503 13.1172 4.21664 13.1319 4.1875C13.1466 4.15836 13.1599 4.12849 13.1717 4.09801C13.1835 4.06753 13.1937 4.03648 13.2024 4.00498C13.2111 3.97347 13.2182 3.94155 13.2237 3.90933C13.2293 3.87712 13.2332 3.84465 13.2355 3.81204C13.2371 3.78894 13.2379 3.76579 13.2379 3.74264C13.2379 3.70994 13.2363 3.67727 13.2331 3.64474C13.2298 3.6122 13.225 3.57985 13.2185 3.54781C13.2121 3.51576 13.204 3.48406 13.1944 3.45283C13.1848 3.42158 13.1737 3.39084 13.161 3.36072C13.1483 3.33058 13.1342 3.30111 13.1186 3.2724C13.103 3.2437 13.086 3.21579 13.0677 3.1888C13.0493 3.1618 13.0297 3.13575 13.0087 3.11073C12.9878 3.08572 12.9657 3.06176 12.9424 3.03897C12.9191 3.01619 12.8946 2.99461 12.8692 2.97428C12.8437 2.95397 12.8173 2.93494 12.7899 2.91729C12.7626 2.89961 12.7344 2.88332 12.7054 2.86849C12.6765 2.85364 12.6468 2.84027 12.6165 2.8284C12.5863 2.81656 12.5554 2.80624 12.5241 2.7975C12.4928 2.78875 12.4611 2.78158 12.4291 2.77602C12.3971 2.77047 12.3648 2.76654 12.3324 2.76423C12.3095 2.76259 12.2865 2.76177 12.2635 2.76177V2.76172Z" fill="url(#paint1_radial)"/>
<path d="M7.23098 0.0157741C6.78596 0.0150565 6.38882 0.0169015 6.03206 0.0219247L5.07559 0.0475536C4.79224 0.0598555 4.5419 0.075898 4.31718 0.0966574C4.20483 0.107011 4.09883 0.118596 3.99836 0.131359C3.90276 0.143409 3.80742 0.15744 3.71239 0.173442C3.62192 0.18882 3.53607 0.205426 3.45375 0.223469C3.37143 0.241512 3.2928 0.26099 3.21694 0.281904C3.14277 0.302354 3.06919 0.324848 2.99627 0.349359C2.92482 0.37345 2.85511 0.398977 2.78627 0.426246C2.64859 0.480784 2.5143 0.541985 2.376 0.610568C2.26959 0.663363 2.17128 0.716825 2.07789 0.773413C1.9845 0.830002 1.89602 0.889769 1.8094 0.954866C1.72019 1.02223 1.6342 1.09377 1.55173 1.16923C1.46551 1.24775 1.37745 1.33412 1.28595 1.43064C1.17098 1.55125 1.07108 1.66371 0.982406 1.77407C0.938068 1.82922 0.896549 1.88376 0.85744 1.9386C0.818762 1.99266 0.781787 2.0479 0.746569 2.10427C0.711714 2.16014 0.678704 2.21704 0.647129 2.27557C0.615062 2.33512 0.584755 2.39559 0.556249 2.45692C0.497918 2.5822 0.443482 2.71711 0.389149 2.8677C0.348841 2.97904 0.312747 3.09185 0.280944 3.2059C0.248498 3.32246 0.219639 3.4444 0.193908 3.57629C0.168177 3.70818 0.145726 3.85001 0.125991 4.00686C0.104726 4.17879 0.0877371 4.35122 0.0750413 4.52399C0.0606891 4.71396 0.0487973 4.92299 0.0390584 5.15564L0.0159924 5.92923L0.00358803 6.87221L0 8.01203L0.0105078 9.66955L0.0433128 10.9254L0.0685828 11.4159L0.100158 11.8224C0.110279 11.9319 0.122943 12.0413 0.13814 12.1502C0.151979 12.247 0.166844 12.3317 0.182836 12.405C0.215286 12.554 0.253657 12.7017 0.297859 12.8476C0.340181 12.9874 0.38858 13.1252 0.442918 13.2608C0.496329 13.3935 0.554763 13.5216 0.618322 13.6448C0.681882 13.768 0.750567 13.8864 0.824378 14.0002C0.898189 14.1139 0.977126 14.223 1.06139 14.3274C1.14557 14.4318 1.2351 14.5318 1.32963 14.6269C1.4243 14.7223 1.52415 14.813 1.62938 14.8992C1.73586 14.9864 1.84654 15.0684 1.96102 15.1448C2.06728 15.2158 2.17241 15.2808 2.2783 15.3406C2.3842 15.4003 2.49102 15.4545 2.60082 15.5037C2.71061 15.553 2.82317 15.5973 2.94076 15.6372C3.05834 15.6771 3.18085 15.7125 3.31033 15.744C3.43981 15.7755 3.57687 15.8031 3.72193 15.8272C3.86699 15.8513 4.02204 15.8719 4.18771 15.8897C4.35337 15.9075 4.53011 15.9222 4.72002 15.9345C4.90993 15.9468 5.11291 15.9567 5.33101 15.9646C5.66793 15.9768 6.17794 15.9839 6.76607 15.9866L8.67004 15.9828L10.473 15.9575L11.1585 15.9382L11.6051 15.9153C11.701 15.9075 11.7948 15.8982 11.8853 15.8874C11.9758 15.8766 12.0651 15.8643 12.152 15.8502C12.239 15.8362 12.324 15.8205 12.4075 15.8031C12.49 15.7859 12.5721 15.7667 12.6537 15.7455C12.7345 15.725 12.8141 15.7017 12.893 15.6769C12.9718 15.6522 13.0498 15.6254 13.1274 15.5967C13.2054 15.5678 13.2826 15.537 13.3592 15.5044C13.4362 15.4716 13.5131 15.4365 13.5903 15.3993C13.7089 15.3422 13.8043 15.2946 13.8881 15.2481C13.967 15.2048 14.0429 15.1565 14.1154 15.1033C14.187 15.0506 14.2581 14.9907 14.3401 14.9151C14.4221 14.8396 14.5151 14.7485 14.6301 14.6334C14.7313 14.5323 14.8166 14.4445 14.8901 14.3646C14.9637 14.2846 15.0256 14.2127 15.08 14.1434C15.1318 14.0777 15.18 14.0092 15.2245 13.9383C15.2679 13.8691 15.3079 13.7972 15.3487 13.7175C15.41 13.5976 15.4645 13.4865 15.5134 13.3793C15.5608 13.276 15.6041 13.1709 15.6432 13.0642C15.6818 12.9583 15.7152 12.8506 15.7433 12.7415C15.7722 12.6293 15.7971 12.5108 15.8186 12.3808C15.8401 12.2508 15.8583 12.1093 15.8741 11.9513C15.8899 11.7934 15.9033 11.6188 15.9151 11.4226L15.9464 10.7641L15.9732 9.94517L15.9924 9.03278L15.9998 8.07877L15.9827 6.20504L15.9598 5.3658L15.9285 4.64522L15.8895 4.08343C15.8754 3.9271 15.8601 3.80398 15.8439 3.72073C15.826 3.62876 15.806 3.5372 15.7838 3.44615C15.7623 3.35754 15.7387 3.26947 15.7129 3.18202C15.6877 3.09681 15.6604 3.01226 15.6309 2.92844C15.6018 2.84566 15.571 2.76462 15.5387 2.68533C15.5064 2.60603 15.4714 2.52858 15.435 2.45277C15.3986 2.37696 15.3605 2.303 15.3205 2.23072C15.2804 2.15845 15.2387 2.08797 15.1951 2.01923C15.1515 1.9505 15.1061 1.8835 15.0588 1.8183C15.0117 1.75331 14.9627 1.68981 14.9116 1.62788C14.8609 1.56629 14.8082 1.50633 14.7537 1.44807C14.6992 1.38988 14.6429 1.33344 14.5849 1.27882C14.5268 1.22417 14.467 1.17128 14.4053 1.12012C14.3433 1.0688 14.2798 1.01941 14.2148 0.972038C14.1491 0.924179 14.082 0.878334 14.0135 0.834565C13.944 0.790174 13.8733 0.74785 13.8014 0.70765C13.7282 0.666777 13.6538 0.62801 13.5784 0.591398C13.4532 0.530555 13.3375 0.476581 13.2238 0.428706C13.1121 0.381193 12.9982 0.338995 12.8826 0.302253C12.7662 0.265604 12.6451 0.234183 12.5118 0.207068C12.3785 0.179952 12.2332 0.157348 12.0687 0.138126C11.9043 0.118904 11.7206 0.103374 11.5105 0.0904566C11.3005 0.0775397 11.0642 0.0673898 10.7945 0.0591886L9.87768 0.0386858L8.71735 0.0250001L7.23149 0.0158757L7.23098 0.0157741ZM8.00267 1.42546L10.1454 1.43766L10.9537 1.45325C11.1763 1.4595 11.3462 1.46683 11.4458 1.47529C11.5755 1.4862 11.699 1.49989 11.8172 1.51629C11.9306 1.53195 12.0434 1.55142 12.1555 1.57467C12.2631 1.59723 12.3658 1.62286 12.464 1.65177C12.5623 1.68068 12.6562 1.71307 12.7462 1.7489C12.8363 1.78473 12.9224 1.82415 13.0053 1.86731C13.0875 1.91014 13.1674 1.95728 13.2446 2.00852C13.3215 2.05952 13.3956 2.11447 13.4676 2.17367C13.5396 2.23288 13.6093 2.29633 13.6775 2.3642C13.7494 2.4358 13.8157 2.50874 13.8769 2.58399C13.9378 2.65877 13.9941 2.73715 14.0456 2.8187C14.0977 2.90141 14.1447 2.98726 14.1862 3.07576C14.2286 3.16597 14.2668 3.26131 14.301 3.36265C14.3353 3.46398 14.3658 3.57168 14.3928 3.68675C14.4211 3.80875 14.4448 3.93177 14.4638 4.05555C14.4843 4.18677 14.5018 4.3267 14.5167 4.47653C14.5316 4.62636 14.5439 4.78613 14.554 4.95707C14.5621 5.09419 14.5692 5.27513 14.5752 5.48882L14.5902 6.21745L14.6017 8.00224L14.5886 9.78535L14.5729 10.5119L14.5514 11.0403C14.5364 11.2877 14.5206 11.4957 14.5017 11.6768C14.4923 11.7673 14.482 11.851 14.4706 11.9296C14.46 12.0038 14.4473 12.0778 14.4327 12.1514C14.4194 12.2185 14.4039 12.2851 14.3864 12.3513C14.3695 12.4144 14.3506 12.4769 14.3295 12.5387C14.3083 12.6008 14.2853 12.6623 14.2604 12.723C14.2341 12.7872 14.2063 12.8507 14.1771 12.9136C14.1511 12.9697 14.1238 13.0243 14.0949 13.0774C14.0663 13.13 14.0359 13.1817 14.0038 13.2322C13.972 13.2823 13.9387 13.3309 13.9039 13.3781C13.8692 13.425 13.8329 13.4707 13.7949 13.515C13.7571 13.5592 13.7176 13.6019 13.6766 13.6432C13.6356 13.6844 13.5931 13.7242 13.549 13.7627C13.5049 13.8011 13.4592 13.838 13.4119 13.8736C13.3646 13.9092 13.3156 13.9433 13.265 13.976C13.2145 14.0087 13.1623 14.0401 13.1084 14.07C13.0545 14.1 12.999 14.1286 12.9418 14.1558C12.8837 14.1834 12.8247 14.2093 12.765 14.2334C12.7033 14.2583 12.6409 14.2814 12.5779 14.3028C12.4498 14.3465 12.3146 14.3849 12.1723 14.4179C12.024 14.4522 11.8744 14.4802 11.7237 14.5019C11.6658 14.5103 11.5327 14.5183 11.342 14.5257L10.6154 14.5459L8.55533 14.5726L6.39912 14.576L5.55234 14.567L5.0025 14.5499L4.59705 14.5214C4.47116 14.5107 4.35409 14.499 4.2444 14.4856C4.13471 14.4722 4.03255 14.4573 3.93644 14.4405C3.84537 14.4247 3.75484 14.4059 3.66503 14.3841C3.58314 14.3642 3.50209 14.3409 3.42207 14.3145C3.34493 14.2889 3.27117 14.2607 3.19941 14.2296C3.12765 14.1986 3.05793 14.1647 2.98889 14.1275C2.91985 14.0904 2.85152 14.0501 2.78242 14.0062C2.7303 13.9731 2.67991 13.9396 2.63142 13.9041C2.58293 13.8685 2.53608 13.8331 2.49097 13.796C2.44587 13.7589 2.40255 13.7207 2.36078 13.6813C2.31928 13.6421 2.27921 13.6015 2.24063 13.5594C2.20219 13.5175 2.16543 13.4743 2.13017 13.4296C2.09477 13.3847 2.06103 13.3386 2.02904 13.2912C1.99657 13.2431 1.96584 13.1939 1.93693 13.1436C1.90771 13.0929 1.87993 13.0404 1.85353 12.9862C1.82669 12.9311 1.80165 12.8751 1.77844 12.8183C1.75486 12.7604 1.73251 12.7008 1.7115 12.6392C1.66946 12.5159 1.63256 12.3847 1.60047 12.2447C1.56838 12.1048 1.54101 11.9562 1.51784 11.7978C1.49468 11.6394 1.47602 11.4715 1.46115 11.293C1.45018 11.1615 1.44147 10.9567 1.43481 10.6984L1.42086 9.7796L1.42599 7.43738L1.46633 5.19926L1.49708 4.41072L1.51451 4.15007C1.52056 4.08046 1.52681 4.0289 1.53322 3.99794C1.55434 3.89609 1.57561 3.80131 1.5976 3.71258C1.61814 3.62888 1.641 3.54576 1.66613 3.46332C1.69002 3.38551 1.71519 3.31262 1.7421 3.24358C1.76805 3.17669 1.79697 3.111 1.82877 3.04669C1.85984 2.98416 1.8932 2.92429 1.92944 2.86601C1.96568 2.80773 2.00479 2.75119 2.04744 2.69496C2.09009 2.63873 2.13601 2.58322 2.18599 2.52694C2.23597 2.47066 2.28994 2.41382 2.34848 2.35523C2.4167 2.28662 2.48773 2.22087 2.5614 2.15814C2.63096 2.09896 2.7035 2.04338 2.77873 1.99161C2.8527 1.94035 2.92856 1.89473 3.00755 1.8528C3.08654 1.81087 3.16865 1.77299 3.25502 1.73891C3.34139 1.70482 3.43212 1.67432 3.52822 1.64664C3.62919 1.61832 3.73128 1.59416 3.83423 1.57421C3.94249 1.55299 4.05746 1.53449 4.18022 1.51834C4.30299 1.5022 4.43359 1.48825 4.57322 1.47616C4.67061 1.46775 4.83842 1.46027 5.0594 1.45396L5.86363 1.43807L8.00303 1.425L8.00267 1.42546Z" fill="url(#paint2_radial)"/>
</g>
<defs>
<radialGradient id="paint0_radial" cx="0" cy="0" r="1" gradientUnits="userSpaceOnUse" gradientTransform="translate(2.54789 17.1517) rotate(-9.53101) scale(33.8153 20.5257)">
<stop stop-color="#FED576"/>
<stop offset="0.263" stop-color="#F47133"/>
<stop offset="0.609" stop-color="#BC3081"/>
<stop offset="1" stop-color="#4C63D2"/>
</radialGradient>
<radialGradient id="paint1_radial" cx="0" cy="0" r="1" gradientUnits="userSpaceOnUse" gradientTransform="translate(2.54793 17.1504) rotate(-9.53102) scale(33.8153 20.5257)">
<stop stop-color="#FED576"/>
<stop offset="0.263" stop-color="#F47133"/>
<stop offset="0.609" stop-color="#BC3081"/>
<stop offset="1" stop-color="#4C63D2"/>
</radialGradient>
<radialGradient id="paint2_radial" cx="0" cy="0" r="1" gradientUnits="userSpaceOnUse" gradientTransform="translate(2.54905 17.1508) rotate(-9.53101) scale(33.8153 20.5257)">
<stop stop-color="#FED576"/>
<stop offset="0.263" stop-color="#F47133"/>
<stop offset="0.609" stop-color="#BC3081"/>
<stop offset="1" stop-color="#4C63D2"/>
</radialGradient>
<clipPath id="clip0">
<rect width="16" height="16" fill="white"/>
</clipPath>
</defs>
</svg>
