<svg width="245" height="238" viewBox="0 0 245 238" fill="none" xmlns="http://www.w3.org/2000/svg">
<path d="M96.3484 39.4512L91.8324 43.9672L87.8884 47.9205L86.8924 48.9152L82.4511 53.3472L68.9871 66.8205L33.1777 102.631L96.2831 165.737L105.259 174.714L123.551 193.006L141.843 174.714L150.819 165.737L213.927 102.631L196.334 85.0392L179.128 67.8338L161.151 49.8552L159.215 47.9205L150.756 39.4512L141.375 30.0792L137.523 26.2179L123.551 12.2472L96.3484 39.4512Z" fill="url(#paint0_linear_1201:41501)"/>
<g opacity="0.199997">
<g opacity="0.199997">
<path opacity="0.199997" d="M131.698 20.2133C126.075 25.068 121.613 29.184 116.338 34.752H124.009C127.801 30.076 130.373 27.284 134.418 23.112C133.649 22.3746 132.397 21.0346 131.698 20.2133Z" fill="#898989"/>
</g>
</g>
<g opacity="0.199997">
<g opacity="0.199997">
<path opacity="0.199997" d="M196.333 85.0404V120.224L179.129 137.43V67.835L196.333 85.0404Z" fill="#606060"/>
</g>
</g>
<g opacity="0.199997">
<g opacity="0.199997">
<path opacity="0.199997" d="M150.819 165.738L141.845 174.714H105.259L96.2832 165.738H150.819Z" fill="#606060"/>
</g>
</g>
<g opacity="0.199997">
<g opacity="0.199997">
<path opacity="0.199997" d="M159.215 47.9199H87.8887L91.8327 43.9666L96.3487 39.4506H150.755L159.215 47.9199Z" fill="#898989"/>
</g>
</g>
<path d="M229.11 125.104L227.983 125.805C222.248 128.94 216.562 132.226 210.742 135.098C204.274 138.289 197.728 141.26 191.104 143.94C177.126 149.593 162.787 153.812 147.902 155.58C141.136 156.384 134.29 156.89 127.388 156.705C117.139 156.432 106.799 154.888 96.4391 149.234C91.1164 146.328 86.0538 142.51 81.7538 136.225C76.7564 128.918 74.7204 120.437 74.8178 111.262C74.9151 102.314 76.8964 94.5663 79.5418 87.3409C85.3484 71.4903 93.6444 59.0103 102.755 47.6836C115.968 31.2543 130.719 17.9636 146.354 6.4956C149.283 4.3476 152.248 2.28494 155.199 0.191609C155.467 0.00227553 155.76 -0.120398 156.247 0.186268C154.927 1.2916 153.616 2.4116 152.29 3.49694C141.048 12.6943 130.347 22.9583 120.571 35.0636C113.175 44.2209 106.343 54.1983 100.876 66.1263C96.7284 75.1809 93.4151 84.9449 92.7311 96.8436C91.9084 111.185 96.7444 124.48 105.911 132.982C111.767 138.413 117.954 141.613 124.296 143.685C135.566 147.364 146.571 147.734 157.502 147.008C169.882 146.186 181.864 143.472 193.615 139.676C205.215 135.926 216.522 131.144 227.526 125.358C227.896 125.164 230.852 123.893 231.234 123.729C231.29 123.85 229.711 124.692 229.11 125.104Z" fill="#8A8A8A"/>
<path d="M56.21 34.7513L55.6699 69.474L63.6139 61.5313V42.6953H183.486V162.569H63.6139V143.733L55.6699 135.789V170.502H191.43L191.969 34.7513H56.21Z" fill="url(#paint1_linear_1201:41501)"/>
<g opacity="0.199997">
<g opacity="0.199997">
<path opacity="0.199997" d="M191.43 142.592C188.794 143.421 186.149 144.206 183.486 144.912V149.146C186.022 148.217 188.548 147.233 191.058 146.201C191.182 146.15 191.306 146.096 191.43 146.044V142.592Z" fill="#898989"/>
</g>
</g>
<path d="M33.1719 102.629L81.4959 150.953L66.1345 115.714L69.1519 82.5625L78.4666 57.3371L33.1719 102.629Z" fill="url(#paint2_linear_1201:41501)"/>
<path d="M227.525 125.359C216.521 131.144 205.215 135.927 193.614 139.675C181.865 143.472 169.882 146.185 157.501 147.007C146.57 147.733 135.565 147.364 124.295 143.684C117.953 141.612 111.767 138.413 105.91 132.983C98.3245 125.947 93.7165 115.624 92.8152 104.148H75.3099C75.0245 106.441 74.8432 108.803 74.8179 111.263C74.7192 120.437 76.7565 128.919 81.7539 136.224C86.0525 142.509 91.1152 146.328 96.4392 149.233C106.798 154.887 117.139 156.432 127.387 156.705C134.289 156.889 141.135 156.384 147.901 155.58C162.786 153.812 177.125 149.593 191.105 143.94C197.727 141.26 204.274 138.288 210.741 135.099C216.561 132.225 222.247 128.94 227.983 125.805L229.109 125.104C229.711 124.692 231.289 123.849 231.233 123.728C230.85 123.892 227.895 125.164 227.525 125.359Z" fill="#8A8A8A"/>
<path d="M142.509 222.432C142.509 230.693 147.313 237.264 156.292 237.264C165.693 237.264 170.449 230.304 170.449 222.31C170.449 213.574 165.123 207.601 156.679 207.601C147.677 207.601 142.509 214.09 142.509 222.432V222.432ZM148.192 222.306C148.192 219.492 148.791 216.998 150.057 215.172L146.372 212.082H155.816C156.025 212.07 156.228 212.052 156.445 212.052C162.228 212.052 164.767 216.669 164.767 222.382C164.767 227.87 162.531 232.812 156.509 232.812C150.948 232.812 148.192 228.141 148.192 222.306V222.306ZM24.0547 214.216L34.184 236.446H40.2374L27.3467 207.601L24.0547 214.216ZM11.2493 214.216L14.3494 221.017H20.5361L14.5413 207.601L11.2493 214.216ZM108.96 207.609V236.438H114.456V225.302H120.537C126.288 225.302 130.856 222.393 130.856 216.352C130.856 210.949 126.748 207.609 120.715 207.609H108.96ZM114.456 216.49L109.072 211.977H114.456V211.973H120.088C123.025 211.973 125.291 213.305 125.291 216.464C125.291 219.548 123.244 220.938 119.949 220.938H114.456V216.49ZM73.904 207.609V236.438H79.4014V225.302H85.4814C91.232 225.302 95.7987 222.393 95.7987 216.352C95.7987 210.949 91.6947 207.609 85.6587 207.609H73.904ZM79.4014 216.49L74.016 211.977H79.4014V211.973H85.0334C87.9707 211.973 90.2347 213.305 90.2347 216.464C90.2347 219.548 88.1893 220.938 84.8933 220.938H79.4014V216.49ZM53.392 207.609V236.438H58.8747V216.592L53.5067 212.092H58.8747V207.609H53.392ZM222.323 215.822C222.323 219.769 224.435 222.442 232.025 224.218C237.321 225.453 238.743 226.677 238.743 229.209C238.743 231.532 237.176 233.117 233.393 233.117C229.716 233.117 227.511 231.642 226.801 228.554H221.261C221.931 233.525 225.585 237.25 232.983 237.25C240.513 237.25 244.368 233.629 244.368 228.576C244.368 224.634 242.637 221.489 234.189 219.505C229.464 218.406 228.029 217.521 227.953 215.412L223.581 211.746H231.972C232.165 211.733 232.351 211.714 232.556 211.714C236.495 211.714 237.708 213.702 238.087 215.749H243.627C243.216 211.678 240.203 207.613 232.712 207.613C225.927 207.613 222.323 211.052 222.323 215.822V215.822ZM186.424 208.018V236.848H191.921V225.71H198.004C203.752 225.71 208.321 222.801 208.321 216.761C208.321 211.357 204.215 208.018 198.18 208.018H186.424ZM191.921 216.898L186.536 212.386H191.921V212.381H197.553C200.491 212.381 202.756 213.713 202.756 216.873C202.756 219.957 200.709 221.346 197.415 221.346H191.921V216.898ZM20.56 221.017L12.804 236.446H18.8573L27.0907 221.017H20.56ZM7.75602 221.017L0 236.446H6.05339L14.2867 221.017H7.75602ZM120.216 227.013L124.827 236.438H130.88L126.359 227.013H120.216ZM85.16 227.013L89.7707 236.438H95.8241L91.3013 227.013H85.16ZM197.68 227.42L202.292 236.848H208.345L203.823 227.42H197.68Z" fill="url(#paint3_linear_1201:41501)"/>
<defs>
<linearGradient id="paint0_linear_1201:41501" x1="162.309" y1="52.4292" x2="85.9915" y2="151.283" gradientUnits="userSpaceOnUse">
<stop/>
<stop offset="0.558114" stop-color="#4A4A4A"/>
<stop offset="1" stop-color="#4A4A4A"/>
</linearGradient>
<linearGradient id="paint1_linear_1201:41501" x1="74.8925" y1="163.369" x2="179.157" y2="33.9281" gradientUnits="userSpaceOnUse">
<stop/>
<stop offset="0.558114" stop-color="#4A4A4A"/>
<stop offset="1" stop-color="#4A4A4A"/>
</linearGradient>
<linearGradient id="paint2_linear_1201:41501" x1="132.504" y1="29.4228" x2="56.1865" y2="128.277" gradientUnits="userSpaceOnUse">
<stop/>
<stop offset="0.558114" stop-color="#4A4A4A"/>
<stop offset="1" stop-color="#4A4A4A"/>
</linearGradient>
<linearGradient id="paint3_linear_1201:41501" x1="-0.000346667" y1="222.432" x2="244.367" y2="222.432" gradientUnits="userSpaceOnUse">
<stop/>
<stop offset="0.367933"/>
<stop offset="1" stop-color="#4A4A4A"/>
</linearGradient>
</defs>
</svg>
