<svg width="245" height="238" viewBox="0 0 245 238" fill="none" xmlns="http://www.w3.org/2000/svg">
<path d="M96.349 39.4502L91.8343 43.9662L87.889 47.9195L86.8944 48.9142L82.4517 53.3462L68.989 66.8196L33.1797 102.63L96.285 165.736L105.261 174.713L123.553 193.005L141.845 174.713L150.822 165.736L213.928 102.63L196.336 85.0382L179.13 67.8329L161.15 49.8542L159.216 47.9195L150.756 39.4502L141.374 30.0782L137.524 26.2169L123.553 12.2462L96.349 39.4502Z" fill="url(#paint0_linear_1201:41500)"/>
<g opacity="0.199997">
<g opacity="0.199997">
<path opacity="0.199997" d="M131.698 20.2123C126.075 25.067 121.613 29.183 116.338 34.751H124.009C127.801 30.075 130.371 27.283 134.418 23.111C133.647 22.3736 132.397 21.0336 131.698 20.2123Z" fill="#787878"/>
</g>
</g>
<g opacity="0.199997">
<g opacity="0.199997">
<path opacity="0.199997" d="M196.332 85.0394V120.223L179.127 137.429V67.834L196.332 85.0394Z" fill="#A0A0A0"/>
</g>
</g>
<g opacity="0.199997">
<g opacity="0.199997">
<path opacity="0.199997" d="M150.819 165.737L141.843 174.713H105.257L96.2812 165.737H150.819Z" fill="#A0A0A0"/>
</g>
</g>
<g opacity="0.199997">
<g opacity="0.199997">
<path opacity="0.199997" d="M159.213 47.9189H87.8867L91.8307 43.9656L96.3467 39.4496H150.753L159.213 47.9189Z" fill="#787878"/>
</g>
</g>
<path d="M155.201 0.191955C152.249 2.28395 149.284 4.34795 146.356 6.49595C130.721 17.9626 115.969 31.2533 102.756 47.6813C93.6464 59.0093 85.3491 71.4893 79.5437 87.3399C76.8971 94.5639 74.9157 102.315 74.8197 111.261C74.7224 120.436 76.7584 128.919 81.7557 136.224C86.0557 142.509 91.1184 146.327 96.4411 149.233C106.8 154.887 117.142 156.431 127.39 156.704C134.29 156.889 141.137 156.383 147.902 155.58C162.788 153.811 177.128 149.592 191.105 143.939C197.729 141.259 204.274 138.288 210.742 135.097C216.564 132.225 222.249 128.939 227.985 125.804L229.11 125.104C229.714 124.692 231.29 123.849 231.234 123.728C230.853 123.892 227.898 125.163 227.526 125.357C216.522 131.143 205.216 135.927 193.617 139.675C181.866 143.472 169.882 146.185 157.504 147.007C146.572 147.733 135.566 147.364 124.297 143.683C117.954 141.612 111.769 138.412 105.912 132.981C96.7451 124.479 91.9091 111.183 92.7331 96.8426C93.4157 84.944 96.7304 75.18 100.878 66.1253C106.344 54.1973 113.176 44.2213 120.572 35.0626C130.348 22.9573 141.049 12.6933 152.292 3.49595C153.618 2.41195 154.93 1.28928 156.248 0.185282C156.034 0.0506149 155.858 -6.18651e-05 155.706 -6.18651e-05C155.509 -6.18651e-05 155.35 0.0852881 155.201 0.191955Z" fill="url(#paint1_linear_1201:41500)"/>
<path d="M56.2106 34.7503L55.6719 69.473L63.6159 61.5303V42.6943H183.489V162.568H63.6159V143.732L55.6719 135.788V170.501H191.432L191.971 34.7503H56.2106Z" fill="url(#paint2_linear_1201:41500)"/>
<g opacity="0.199997">
<g opacity="0.199997">
<path opacity="0.199997" d="M191.431 142.591C188.795 143.42 186.15 144.206 183.488 144.911V149.146C186.024 148.216 188.548 147.232 191.06 146.2C191.183 146.15 191.307 146.095 191.431 146.043V142.591Z" fill="#787878"/>
</g>
</g>
<path d="M33.1719 102.628L81.4932 150.952L66.1346 115.713L69.1519 82.5615L78.4639 57.3361L33.1719 102.628Z" fill="url(#paint3_linear_1201:41500)"/>
<path d="M75.3117 104.147C75.0264 106.44 74.8451 108.803 74.8197 111.261C74.7224 120.436 76.7584 128.919 81.7557 136.224C86.0557 142.509 91.1184 146.327 96.4411 149.233C106.8 154.887 117.142 156.431 127.39 156.704C134.29 156.889 141.137 156.383 147.902 155.58C162.788 153.811 177.128 149.592 191.105 143.939C197.729 141.259 204.274 138.288 210.742 135.097C216.564 132.225 222.249 128.939 227.985 125.804L229.11 125.104C229.714 124.692 231.29 123.849 231.234 123.728C230.853 123.892 227.898 125.163 227.526 125.357C216.522 131.143 205.216 135.927 193.617 139.675C181.866 143.472 169.882 146.185 157.504 147.007C146.572 147.733 135.566 147.364 124.297 143.683C117.954 141.612 111.769 138.412 105.912 132.981C98.3264 125.947 93.7184 115.624 92.817 104.147H75.3117Z" fill="url(#paint4_linear_1201:41500)"/>
<path d="M142.509 222.431C142.509 230.692 147.312 237.263 156.295 237.263C165.693 237.263 170.449 230.303 170.449 222.309C170.449 213.573 165.123 207.6 156.679 207.6C147.677 207.6 142.509 214.089 142.509 222.431V222.431ZM148.193 222.305C148.193 219.491 148.791 216.997 150.059 215.171L146.373 212.081H155.817C156.025 212.069 156.228 212.051 156.445 212.051C162.228 212.051 164.768 216.668 164.768 222.381C164.768 227.869 162.532 232.811 156.509 232.811C150.948 232.811 148.193 228.14 148.193 222.305ZM24.056 214.215L34.184 236.445H40.2373L27.3467 207.6L24.056 214.215ZM11.252 214.215L14.3507 221.016H20.5387L14.5427 207.6L11.252 214.215ZM108.96 207.608V236.437H114.456V225.301H120.539C126.288 225.301 130.856 222.392 130.856 216.351C130.856 210.948 126.749 207.608 120.716 207.608H108.96ZM114.456 216.489L109.072 211.976H114.456V211.972H120.089C123.025 211.972 125.291 213.304 125.291 216.463C125.291 219.547 123.247 220.937 119.949 220.937H114.456V216.489ZM73.9054 207.608V236.437H79.4027V225.301H85.484C91.2333 225.301 95.8 222.392 95.8 216.351C95.8 210.948 91.6947 207.608 85.66 207.608H73.9054ZM79.4027 216.489L74.016 211.976H79.4027V211.972H85.0333C87.9707 211.972 90.236 213.304 90.236 216.463C90.236 219.547 88.1894 220.937 84.8947 220.937H79.4027V216.489ZM53.392 207.608V236.437H58.876V216.591L53.5067 212.091H58.876V207.608H53.392ZM222.323 215.821C222.323 219.768 224.436 222.441 232.028 224.217C237.323 225.452 238.744 226.676 238.744 229.208C238.744 231.531 237.177 233.116 233.393 233.116C229.717 233.116 227.511 231.641 226.801 228.553H221.263C221.929 233.524 225.585 237.249 232.984 237.249C240.515 237.249 244.367 233.628 244.367 228.575C244.367 224.633 242.637 221.488 234.191 219.504C229.464 218.405 228.031 217.52 227.955 215.411L223.581 211.745H231.973C232.165 211.732 232.351 211.713 232.557 211.713C236.496 211.713 237.708 213.701 238.088 215.748H243.628C243.216 211.677 240.201 207.612 232.713 207.612C225.927 207.612 222.323 211.051 222.323 215.821V215.821ZM186.425 208.017V236.847H191.923V225.709H198.004C203.755 225.709 208.32 222.8 208.32 216.76C208.32 211.356 204.215 208.017 198.181 208.017H186.425ZM191.923 216.897L186.537 212.385H191.923V212.38H197.553C200.492 212.38 202.757 213.712 202.757 216.872C202.757 219.956 200.711 221.345 197.415 221.345H191.923V216.897ZM20.5614 221.016L12.804 236.445H18.86L27.0933 221.016H20.5614ZM7.75732 221.016L0 236.445H6.05469L14.288 221.016H7.75732ZM120.216 227.012L124.827 236.437H130.881L126.357 227.012H120.216ZM85.1613 227.012L89.7707 236.437H95.8254L91.304 227.012H85.1613ZM197.683 227.419L202.292 236.847H208.347L203.823 227.419H197.683Z" fill="url(#paint5_linear_1201:41500)"/>
<defs>
<linearGradient id="paint0_linear_1201:41500" x1="162.31" y1="52.4282" x2="85.9928" y2="151.282" gradientUnits="userSpaceOnUse">
<stop stop-color="white"/>
<stop offset="0.558114" stop-color="#B5B5B5"/>
<stop offset="1" stop-color="#B5B5B5"/>
</linearGradient>
<linearGradient id="paint1_linear_1201:41500" x1="74.8166" y1="78.3707" x2="231.236" y2="78.3707" gradientUnits="userSpaceOnUse">
<stop stop-color="white"/>
<stop offset="0.391779" stop-color="white"/>
<stop offset="1" stop-color="#B5B5B5"/>
</linearGradient>
<linearGradient id="paint2_linear_1201:41500" x1="74.8939" y1="163.368" x2="179.158" y2="33.9271" gradientUnits="userSpaceOnUse">
<stop stop-color="white"/>
<stop offset="0.558114" stop-color="#B5B5B5"/>
<stop offset="1" stop-color="#B5B5B5"/>
</linearGradient>
<linearGradient id="paint3_linear_1201:41500" x1="132.503" y1="29.4218" x2="56.1859" y2="128.276" gradientUnits="userSpaceOnUse">
<stop stop-color="white"/>
<stop offset="0.558114" stop-color="#B5B5B5"/>
<stop offset="1" stop-color="#B5B5B5"/>
</linearGradient>
<linearGradient id="paint4_linear_1201:41500" x1="74.8166" y1="130.445" x2="231.236" y2="130.445" gradientUnits="userSpaceOnUse">
<stop stop-color="white"/>
<stop offset="0.391779" stop-color="white"/>
<stop offset="1" stop-color="#B5B5B5"/>
</linearGradient>
<linearGradient id="paint5_linear_1201:41500" x1="0.00032" y1="222.431" x2="244.368" y2="222.431" gradientUnits="userSpaceOnUse">
<stop stop-color="white"/>
<stop offset="0.367933" stop-color="white"/>
<stop offset="1" stop-color="#B5B5B5"/>
</linearGradient>
</defs>
</svg>
