<svg width="2500" height="2500" viewBox="0 0 2500 2500" fill="none" xmlns="http://www.w3.org/2000/svg">
<path fill-rule="evenodd" clip-rule="evenodd" d="M250 0H2250C2388.08 0 2500 111.92 2500 250V2250C2500 2388.08 2388.08 2500 2250 2500H250C111.92 2500 0 2388.08 0 2250V250C0 111.92 111.92 0 250 0Z" fill="black"/>
<path fill-rule="evenodd" clip-rule="evenodd" d="M1569.8 2300C1645.87 2300 1707.54 2238.83 1707.54 2163.38C1707.54 2087.93 1645.87 2026.75 1569.8 2026.75H1549.05C1625.12 2026.75 1686.79 2087.93 1686.79 2163.38C1686.79 2238.83 1625.12 2300 1549.05 2300H1569.8Z" fill="#EE1D51"/>
<path fill-rule="evenodd" clip-rule="evenodd" d="M1547.17 2026.75H1526.42C1450.35 2026.75 1388.67 2087.93 1388.67 2163.38C1388.67 2238.83 1450.35 2300 1526.42 2300H1547.17C1471.09 2300 1409.42 2238.83 1409.42 2163.38C1409.42 2087.93 1471.09 2026.75 1547.17 2026.75V2026.75Z" fill="#66C8CF"/>
<path d="M1548.11 2229.81C1585.11 2229.81 1615.1 2200.07 1615.1 2163.38C1615.1 2126.69 1585.11 2096.95 1548.11 2096.95C1511.11 2096.95 1481.12 2126.69 1481.12 2163.38C1481.12 2200.07 1511.11 2229.81 1548.11 2229.81Z" fill="black"/>
<path fill-rule="evenodd" clip-rule="evenodd" d="M500 1965V2034.25H581.12V2298.13H662.27V2036.12H728.3L750.94 1965H500ZM1164.15 1965V2034.25H1245.27V2298.13H1326.42V2036.12H1392.45L1415.09 1965H1164.15ZM766.05 2004.3C766.05 1982.6 783.76 1965 805.64 1965C827.54 1965 845.27 1982.6 845.27 2004.3C845.27 2026 827.55 2043.6 805.64 2043.6C783.76 2043.59 766.05 2026 766.05 2004.3ZM766.05 2071.68H845.27V2298.13H766.05V2071.68ZM879.24 1965V2298.13H958.49V2212.05L983.02 2189.57L1060.37 2300H1145.27L1033.94 2139.05L1133.94 2041.72H1037.72L958.49 2120.32V1965H879.24ZM1733.94 1965V2298.13H1813.2V2212.05L1837.72 2189.57L1915.09 2300H2000L1888.67 2139.05L1988.67 2041.72H1892.45L1813.2 2120.32V1965H1733.94Z" fill="#C2D1D9"/>
<path fill-rule="evenodd" clip-rule="evenodd" d="M1611.67 811.86C1721.11 890.05 1855.19 936.06 1999.99 936.06V657.55C1972.58 657.561 1945.25 654.702 1918.44 649.02V868.25C1773.65 868.25 1639.59 822.24 1530.12 744.05V1312.4C1530.12 1596.72 1299.52 1827.19 1015.07 1827.19C908.94 1827.19 810.29 1795.12 728.34 1740.12C821.87 1835.7 952.3 1895 1096.6 1895C1381.07 1895 1611.68 1664.53 1611.68 1380.2V811.86H1611.67ZM1712.27 530.88C1656.34 469.81 1619.62 390.88 1611.67 303.62V267.8H1534.39C1553.84 378.7 1620.19 473.45 1712.27 530.88V530.88ZM908.25 1521.95C877.004 1481 860.114 1430.9 860.19 1379.39C860.19 1249.35 965.67 1143.92 1095.8 1143.92C1120.05 1143.9 1144.15 1147.62 1167.27 1154.95V870.22C1140.26 866.521 1113 864.953 1085.75 865.53V1087.15C1062.62 1079.82 1038.51 1076.1 1014.25 1076.12C884.12 1076.12 778.65 1181.55 778.65 1311.6C778.65 1403.55 831.37 1483.17 908.25 1521.95V1521.95Z" fill="#EE1D52"/>
<path fill-rule="evenodd" clip-rule="evenodd" d="M1530.12 744.05C1639.59 822.24 1773.65 868.25 1918.44 868.25V649.02C1837.62 631.82 1766.07 589.6 1712.27 530.88C1620.19 473.45 1553.84 378.7 1534.39 267.8H1331.4V1380.19C1330.94 1509.87 1225.64 1614.87 1095.79 1614.87C1019.27 1614.87 951.29 1578.42 908.24 1521.95C831.36 1483.17 778.64 1403.55 778.64 1311.6C778.64 1181.55 884.11 1076.12 1014.24 1076.12C1039.17 1076.12 1063.2 1080 1085.74 1087.15V865.53C806.29 871.3 581.54 1099.52 581.54 1380.2C581.54 1520.31 637.51 1647.33 728.34 1740.13C810.29 1795.13 908.94 1827.2 1015.07 1827.2C1299.52 1827.2 1530.12 1596.72 1530.12 1312.41V744.05Z" fill="#C2D1D9"/>
<path fill-rule="evenodd" clip-rule="evenodd" d="M1918.44 649.02V589.74C1845.55 589.85 1774.11 569.449 1712.27 530.87C1767.01 590.768 1839.09 632.074 1918.44 649.02V649.02ZM1534.39 267.8C1532.53 257.203 1531.11 246.534 1530.12 235.82V200H1249.84V1312.4C1249.39 1442.07 1144.1 1547.07 1014.24 1547.07C976.11 1547.07 940.12 1538.03 908.24 1521.95C951.29 1578.42 1019.27 1614.87 1095.79 1614.87C1225.63 1614.87 1330.94 1509.87 1331.4 1380.19V267.8H1534.39ZM1085.75 865.53V802.42C1062.33 799.218 1038.72 797.618 1015.08 797.63C730.6 797.63 500 1028.11 500 1312.4C500 1490.64 590.63 1647.72 728.35 1740.12C637.52 1647.32 581.55 1520.3 581.55 1380.19C581.55 1099.52 806.29 871.3 1085.75 865.53V865.53Z" fill="#69C9D0"/>
<path fill-rule="evenodd" clip-rule="evenodd" d="M1549.04 2300C1625.11 2300 1686.79 2238.83 1686.79 2163.38C1686.79 2087.93 1625.11 2026.75 1549.04 2026.75H1547.16C1471.09 2026.75 1409.42 2087.93 1409.42 2163.38C1409.42 2238.83 1471.09 2300 1547.16 2300H1549.04ZM1481.12 2163.38C1481.12 2126.68 1511.12 2096.95 1548.12 2096.95C1585.09 2096.95 1615.09 2126.68 1615.09 2163.38C1615.09 2200.08 1585.09 2229.83 1548.12 2229.83C1511.12 2229.82 1481.12 2200.08 1481.12 2163.38Z" fill="#C2D1D9"/>
</svg>
