<svg width="24" height="24" viewBox="0 0 24 24" fill="none" xmlns="http://www.w3.org/2000/svg">
<path d="M9.3681 9.45163V8.51665C9.03904 8.46489 8.70662 8.43681 8.37345 8.43263C6.80523 8.42951 5.27701 8.92172 4.01166 9.83749C2.74631 10.7533 1.81001 12.0447 1.3393 13.5234C0.868593 15.0022 0.888095 16.5909 1.39497 18.0579C1.90183 19.5249 2.86956 20.7935 4.15702 21.6787C3.18806 20.6537 2.53993 19.3734 2.29088 17.9923C2.04182 16.6112 2.20249 15.1883 2.75348 13.8955C3.30448 12.6027 4.22224 11.4951 5.39598 10.7066C6.56973 9.91803 7.94928 9.48218 9.3681 9.45163Z" fill="#25F4EE"/>
<path d="M9.54563 20.0456C10.4121 20.0448 11.2448 19.7136 11.8704 19.121C12.496 18.5284 12.8662 17.7201 12.9039 16.8644V1.0038H15.8355C15.7752 0.672583 15.7464 0.336516 15.7496 0L11.7402 0V15.8454C11.7082 16.7048 11.3406 17.5187 10.7146 18.116C10.0886 18.7133 9.25284 19.0477 8.38279 19.0489C7.84255 19.0444 7.3111 18.9133 6.83203 18.6664C7.14245 19.0913 7.55006 19.4378 8.02163 19.6774C8.4932 19.9171 9.01538 20.0433 9.54563 20.0456Z" fill="#25F4EE"/>
<path d="M21.3092 6.38578V5.50443C20.2306 5.50442 19.1759 5.18975 18.2773 4.59985C19.0648 5.50541 20.129 6.13294 21.3092 6.38756V6.38578Z" fill="#25F4EE"/>
<path d="M18.2783 4.59971C17.3934 3.60324 16.9055 2.32253 16.9056 0.996582H15.8359C15.9738 1.72964 16.2615 2.42722 16.6812 3.04672C17.101 3.66622 17.6441 4.19464 18.2774 4.59971H18.2783Z" fill="#FE2C55"/>
<path d="M8.37604 12.3951C7.62564 12.3994 6.89822 12.6515 6.30931 13.1112C5.7204 13.571 5.30377 14.2121 5.12558 14.9326C4.94739 15.6532 5.01787 16.412 5.32582 17.0885C5.63377 17.7649 6.16153 18.3203 6.82529 18.6664C6.46229 18.1707 6.24493 17.5855 6.1972 16.9755C6.14948 16.3654 6.27326 15.7542 6.55486 15.2093C6.83647 14.6643 7.26494 14.207 7.79297 13.8877C8.32099 13.5683 8.92803 13.3995 9.54703 13.3998C9.88428 13.4033 10.2193 13.4548 10.5417 13.5526V9.52044C10.2124 9.47178 9.87998 9.44639 9.54703 9.44446H9.36618V12.514C9.04365 12.4274 8.71016 12.3873 8.37604 12.3951Z" fill="#FE2C55"/>
<path d="M21.3095 6.38574V9.45167C19.3123 9.44749 17.367 8.82204 15.7494 7.66395V15.7203C15.7453 17.6511 14.9665 19.5016 13.5839 20.8655C12.2013 22.2294 10.3278 22.9954 8.37449 22.9954C6.86424 22.9981 5.39036 22.5375 4.15625 21.6769C5.16279 22.7472 6.47206 23.493 7.91352 23.8173C9.35498 24.1415 10.8618 24.0291 12.2377 23.4947C13.6136 22.9603 14.7948 22.0287 15.6275 20.8212C16.4601 19.6137 16.9056 18.1863 16.9059 16.725V8.69278C18.5286 9.84358 20.4762 10.4611 22.4733 10.4581V6.5082C22.0821 6.50729 21.6921 6.46625 21.3095 6.38574Z" fill="#FE2C55"/>
<path d="M15.7504 15.722V7.66564C17.3735 8.8161 19.3215 9.43276 21.3187 9.42832V6.36239C20.1388 6.11626 19.0718 5.49761 18.2787 4.59971C17.6454 4.19464 17.1023 3.66622 16.6825 3.04672C16.2628 2.42722 15.9752 1.72964 15.8373 0.996582H12.9048V16.8643C12.8763 17.5549 12.6308 18.2196 12.2025 18.7661C11.7743 19.3125 11.1844 19.7134 10.5151 19.9133C9.84567 20.1131 9.12994 20.1018 8.46731 19.8811C7.80468 19.6604 7.22805 19.2411 6.81755 18.6815C6.15352 18.3357 5.62547 17.7805 5.31731 17.104C5.00916 16.4275 4.93859 15.6686 5.11683 14.9479C5.29506 14.2272 5.71187 13.5861 6.30101 13.1265C6.89014 12.6668 7.61779 12.415 8.36831 12.4111C8.70562 12.4138 9.04072 12.4653 9.36296 12.564V9.49804C7.93651 9.52168 6.54783 9.9551 5.36627 10.7455C4.18471 11.5358 3.26132 12.6489 2.70869 13.9491C2.15607 15.2493 1.9981 16.6803 2.25403 18.0677C2.50997 19.4551 3.16876 20.739 4.15007 21.7626C5.39621 22.5947 6.87202 23.0259 8.37554 22.997C10.3288 22.997 12.2023 22.2311 13.585 20.8671C14.9676 19.5032 15.7464 17.6528 15.7504 15.722Z" fill="black"/>
</svg>
