<svg width="32" height="32" viewBox="0 0 32 32" fill="none" xmlns="http://www.w3.org/2000/svg">
<path fill-rule="evenodd" clip-rule="evenodd" d="M2.66797 9.33464C2.66797 5.65274 5.65274 2.66797 9.33464 2.66797H22.668C26.3499 2.66797 29.3346 5.65274 29.3346 9.33464V22.668C29.3346 26.3499 26.3499 29.3346 22.668 29.3346H9.33464C5.65274 29.3346 2.66797 26.3499 2.66797 22.668V9.33464ZM9.33464 5.33464C7.1255 5.33464 5.33464 7.1255 5.33464 9.33464V22.668C5.33464 24.8771 7.1255 26.668 9.33464 26.668H22.668C24.8771 26.668 26.668 24.8771 26.668 22.668V9.33464C26.668 7.1255 24.8771 5.33464 22.668 5.33464H9.33464Z" fill="#677077"/>
<path fill-rule="evenodd" clip-rule="evenodd" d="M14.668 16.0013C14.668 13.0558 17.0558 10.668 20.0013 10.668H26.668C28.1407 10.668 29.3346 11.8619 29.3346 13.3346V18.668C29.3346 20.1407 28.1407 21.3346 26.668 21.3346H20.0013C17.0558 21.3346 14.668 18.9468 14.668 16.0013ZM20.0013 13.3346C18.5285 13.3346 17.3346 14.5285 17.3346 16.0013C17.3346 17.4741 18.5285 18.668 20.0013 18.668H26.668V13.3346H20.0013Z" fill="#677077"/>
<path fill-rule="evenodd" clip-rule="evenodd" d="M18.668 16.0013C18.668 15.2649 19.2649 14.668 20.0013 14.668L20.1346 14.668C20.871 14.668 21.468 15.2649 21.468 16.0013C21.468 16.7377 20.871 17.3346 20.1346 17.3346L20.0013 17.3346C19.2649 17.3346 18.668 16.7377 18.668 16.0013Z" fill="#677077"/>
</svg>
