<svg width="25155" height="14528" viewBox="0 0 25155 14528" fill="none" xmlns="http://www.w3.org/2000/svg">
<path d="M2246.72 14527.6C2015.03 14525.6 1793.52 14432.1 1630.4 14267.6C1467.28 14103 1375.71 13880.7 1375.71 13649C1375.71 13417.3 1467.28 13195 1630.4 13030.4C1793.52 12865.9 2015.03 12772.4 2246.72 12770.4H19884.1C20115.8 12772.4 20337.3 12865.9 20500.4 13030.4C20663.5 13195 20755.1 13417.3 20755.1 13649C20755.1 13880.7 20663.5 14103 20500.4 14267.6C20337.3 14432.1 20115.8 14525.6 19884.1 14527.6H2246.72ZM2922.43 12770.4C2689.47 12770.4 2466.02 12677.9 2301.3 12513.2C2136.57 12348.4 2044.01 12125 2044.01 11892.1C2044.01 11659.1 2136.57 11435.7 2301.3 11270.9C2466.02 11106.2 2689.47 11013.7 2922.43 11013.7H21438.1C21671 11013.7 21894.3 11106.2 22059.1 11270.9C22223.8 11435.7 22316.3 11659.1 22316.3 11892.1C22316.3 12125 22223.8 12348.4 22059.1 12513.2C21894.3 12677.9 21671 12770.4 21438.1 12770.4H2922.43ZM871.01 11013.7C639.322 11011.7 417.809 10918.2 254.689 10753.7C91.5688 10589.1 -2.42038e-10 10366.8 0 10135.1C-2.42038e-10 9903.4 91.5688 9681.08 254.689 9516.53C417.809 9351.98 639.322 9258.53 871.01 9256.51H5625.51C5858.42 9256.51 6081.81 9163.99 6246.51 8999.29C6411.2 8834.6 6503.67 8611.24 6503.67 8378.32C6503.67 8145.41 6411.2 7922.02 6246.51 7757.33C6081.81 7592.63 5858.42 7500.1 5625.51 7500.1H24276.5C24509.5 7500.1 24732.8 7592.63 24897.5 7757.33C25062.2 7922.02 25154.7 8145.41 25154.7 8378.32C25154.7 8611.24 25062.2 8834.6 24897.5 8999.29C24732.8 9163.99 24509.5 9256.51 24276.5 9256.51H17417.2C17184.3 9256.51 16960.8 9349.07 16796.1 9513.8C16631.4 9678.53 16538.8 9901.94 16538.8 10134.9C16538.8 10367.9 16631.4 10591.3 16796.1 10756C16960.8 10920.7 17184.3 11013.3 17417.2 11013.3V11013.7H871.01ZM4273.97 7499.78C4157.95 7500.79 4042.81 7478.8 3935.33 7435.1C3827.85 7391.4 3730.17 7326.84 3647.77 7245.15C3565.37 7163.47 3499.96 7066.28 3455.32 6959.18C3410.69 6852.09 3387.62 6737.22 3387.62 6621.2C3387.62 6505.17 3410.69 6390.31 3455.32 6283.22C3499.96 6176.12 3565.37 6078.93 3647.77 5997.24C3730.17 5915.56 3827.85 5851 3935.33 5807.3C4042.81 5763.6 4157.95 5741.61 4273.97 5742.62H20885.9C21002.2 5742.33 21117.4 5765.38 21224.6 5810.42H20402.9C20199.8 5810.37 20003.1 5880.66 19846 6009.36C19688.9 6138.06 19581.2 6317.21 19541.3 6516.33C19501.4 6715.46 19531.7 6922.26 19627 7101.57C19722.4 7280.87 19876.9 7421.62 20064.3 7499.84L4273.97 7499.78ZM2246.72 5742.62C2013.76 5742.62 1790.32 5650.09 1625.59 5485.36C1460.86 5320.64 1368.3 5097.19 1368.3 4864.23C1368.3 4631.27 1460.86 4407.86 1625.59 4243.14C1790.32 4078.41 2013.76 3985.88 2246.72 3985.88H21438.3C21671.3 3985.88 21894.6 4078.41 22059.3 4243.14C22224 4407.86 22316.6 4631.27 22316.6 4864.23C22316.6 5097.19 22224 5320.64 22059.3 5485.36C21894.6 5650.09 21671.3 5742.62 21438.3 5742.62H2246.72ZM4273.97 3985.88C4042.28 3983.87 3820.77 3890.41 3657.65 3725.86C3494.53 3561.32 3402.96 3339 3402.96 3107.3C3402.96 2875.61 3494.53 2653.29 3657.65 2488.74C3820.77 2324.19 4042.28 2230.74 4273.97 2228.72H22924.7C23156.4 2230.74 23377.9 2324.19 23541.1 2488.74C23704.2 2653.29 23795.6 2875.61 23795.6 3107.3C23795.6 3339 23704.2 3561.32 23541.1 3725.86C23377.9 3890.41 23156.4 3983.87 22924.7 3985.88H4273.97Z" fill="#E7F6EA"/>
<path d="M5572.63 3072.66H5229.79" stroke="#50B59A" stroke-width="189.197"/>
<path d="M5161.16 2661.23V3004.07" stroke="#50B59A" stroke-width="189.197"/>
<path d="M5161.16 3141.19V3484.02" stroke="#50B59A" stroke-width="189.197"/>
<path d="M5092.61 3072.66H4749.78" stroke="#50B59A" stroke-width="189.197"/>
<path d="M8204.71 590.132C8266.62 590.132 8316.81 539.941 8316.81 478.028C8316.81 416.114 8266.62 365.923 8204.71 365.923C8142.79 365.923 8092.6 416.114 8092.6 478.028C8092.6 539.941 8142.79 590.132 8204.71 590.132Z" fill="#6ECA3D"/>
<path d="M8204.71 1487.17C8266.62 1487.17 8316.81 1436.98 8316.81 1375.07C8316.81 1313.15 8266.62 1262.96 8204.71 1262.96C8142.79 1262.96 8092.6 1313.15 8092.6 1375.07C8092.6 1436.98 8142.79 1487.17 8204.71 1487.17Z" fill="#6ECA3D"/>
<path d="M8653.13 1038.68C8715.04 1038.68 8765.23 988.487 8765.23 926.573C8765.23 864.66 8715.04 814.469 8653.13 814.469C8591.21 814.469 8541.02 864.66 8541.02 926.573C8541.02 988.487 8591.21 1038.68 8653.13 1038.68Z" fill="#6ECA3D"/>
<path d="M7756.1 1038.68C7818.02 1038.68 7868.21 988.487 7868.21 926.573C7868.21 864.66 7818.02 814.469 7756.1 814.469C7694.19 814.469 7644 864.66 7644 926.573C7644 988.487 7694.19 1038.68 7756.1 1038.68Z" fill="#6ECA3D"/>
<path d="M18932.3 3385.8C18982.7 3363.37 19005.4 3304.35 18982.9 3253.97C18960.5 3203.6 18901.5 3180.94 18851.1 3203.38C18800.7 3225.81 18778.1 3284.83 18800.5 3335.21C18822.9 3385.58 18881.9 3408.24 18932.3 3385.8Z" fill="#C5E8CB"/>
<path d="M19257.1 4115.12C19307.5 4092.69 19330.2 4033.66 19307.7 3983.29C19285.3 3932.91 19226.3 3910.26 19175.9 3932.69C19125.5 3955.12 19102.9 4014.15 19125.3 4064.52C19147.7 4114.9 19206.8 4137.55 19257.1 4115.12Z" fill="#C5E8CB"/>
<path d="M19459.5 3588.06C19509.8 3565.63 19532.5 3506.61 19510.1 3456.23C19487.6 3405.85 19428.6 3383.2 19378.2 3405.63C19327.8 3428.07 19305.2 3487.09 19327.6 3537.46C19350.1 3587.84 19409.1 3610.49 19459.5 3588.06Z" fill="#C5E8CB"/>
<path d="M18730 3912.8C18780.4 3890.37 18803 3831.34 18780.6 3780.97C18758.2 3730.59 18699.2 3707.94 18648.8 3730.37C18598.4 3752.8 18575.7 3811.83 18598.2 3862.2C18620.6 3912.58 18679.6 3935.23 18730 3912.8Z" fill="#C5E8CB"/>
<path d="M18774.5 3551.95C18794.2 3500.5 18768.5 3442.77 18717.1 3423.02C18665.6 3403.27 18607.9 3428.97 18588.2 3480.42C18568.4 3531.88 18594.1 3589.6 18645.6 3609.36C18697 3629.11 18754.7 3603.41 18774.5 3551.95Z" fill="#C5E8CB"/>
<path d="M19519.8 3838.06C19539.6 3786.61 19513.9 3728.88 19462.4 3709.13C19411 3689.38 19353.2 3715.08 19333.5 3766.54C19313.7 3817.99 19339.4 3875.72 19390.9 3895.47C19442.3 3915.22 19500.1 3889.52 19519.8 3838.06Z" fill="#C5E8CB"/>
<path d="M19290.3 3322.34C19310.1 3270.88 19284.4 3213.16 19232.9 3193.41C19181.5 3173.65 19123.8 3199.36 19104 3250.81C19084.3 3302.27 19110 3359.99 19161.4 3379.74C19212.9 3399.49 19270.6 3373.79 19290.3 3322.34Z" fill="#C5E8CB"/>
<path d="M19004.1 4067.68C19023.9 4016.23 18998.2 3958.5 18946.7 3938.75C18895.3 3919 18837.6 3944.7 18817.8 3996.15C18798.1 4047.61 18823.8 4105.33 18875.2 4125.09C18926.7 4144.84 18984.4 4119.14 19004.1 4067.68Z" fill="#C5E8CB"/>
<path d="M6170.52 710.349H5578.59" stroke="#3591EA" stroke-width="189.197"/>
<path d="M5460.29 0V591.926" stroke="#3591EA" stroke-width="189.197"/>
<path d="M5460.29 828.713V1420.64" stroke="#3591EA" stroke-width="189.197"/>
<path d="M5341.86 710.349H4749.93" stroke="#3591EA" stroke-width="189.197"/>
<path d="M14463.4 3393.08L16060.2 1197.56" stroke="#9FD9A9" stroke-width="472.992" stroke-linecap="round"/>
<path d="M15660.9 3858.8L16459.2 3193.49" stroke="#9FD9A9" stroke-width="472.992" stroke-linecap="round"/>
<path d="M13199.3 2128.99L13132.7 1397.15" stroke="#9FD9A9" stroke-width="472.992" stroke-linecap="round"/>
<path d="M11735.5 3393.08L11136.8 2594.71" stroke="#9FD9A9" stroke-width="472.992" stroke-linecap="round"/>
<path d="M10730.4 2135.78L10404.9 1729.81" stroke="#9FD9A9" stroke-width="472.992" stroke-linecap="round"/>
<path d="M13265.8 3293.29C13357.7 3293.29 13432.1 3218.82 13432.1 3126.96C13432.1 3035.1 13357.7 2960.63 13265.8 2960.63C13174 2960.63 13099.5 3035.1 13099.5 3126.96C13099.5 3218.82 13174 3293.29 13265.8 3293.29Z" fill="white"/>
<path d="M13265.8 3226.76C13320.9 3226.76 13365.6 3182.08 13365.6 3126.96C13365.6 3071.84 13320.9 3027.16 13265.8 3027.16C13210.7 3027.16 13166 3071.84 13166 3126.96C13166 3182.08 13210.7 3226.76 13265.8 3226.76Z" stroke="#9FD9A9" stroke-width="189.197"/>
<path d="M10626.6 9728.16H15545.3C15604.2 9728.15 15661.5 9708.95 15708.5 9673.46C15755.6 9637.98 15789.8 9588.14 15806 9531.49L16890.8 5734.3C16902.4 5693.93 16904.5 5651.41 16896.8 5610.11C16889.2 5568.81 16872 5529.85 16846.7 5496.31C16821.5 5462.76 16788.7 5435.55 16751.1 5416.81C16713.5 5398.08 16672.1 5388.33 16630.1 5388.34H10001.2L9807.29 4516.25C9793.89 4456.01 9760.35 4402.14 9712.21 4363.53C9664.07 4324.92 9604.2 4303.88 9542.49 4303.88H7915.21C7843.28 4303.88 7774.3 4332.46 7723.43 4383.32C7672.57 4434.18 7644 4503.17 7644 4575.1C7644 4647.03 7672.57 4716.01 7723.43 4766.88C7774.3 4817.74 7843.28 4846.31 7915.21 4846.31H9324.94C9359.27 5000.93 10252.7 9021.47 10304.1 9252.79C10132.4 9327.12 9991.56 9458.37 9905.31 9624.43C9819.06 9790.49 9792.7 9981.21 9830.66 10164.4C9868.62 10347.7 9968.58 10512.2 10113.7 10630.3C10258.8 10748.5 10440.2 10813 10627.3 10812.9H15545.3C15617.2 10812.9 15686.2 10784.4 15737 10733.5C15787.9 10682.6 15816.5 10613.7 15816.5 10541.7C15816.5 10469.8 15787.9 10400.8 15737 10350C15686.2 10299.1 15617.2 10270.5 15545.3 10270.5H10627.3C10555.4 10270.6 10486.4 10242.1 10435.5 10191.4C10384.6 10140.6 10355.9 10071.6 10355.8 9999.7C10355.7 9927.78 10384.2 9858.77 10435 9807.84C10485.8 9756.92 10554.7 9728.25 10626.6 9728.16ZM16270.5 5931.17L15340.7 9185.66H10844.8L10121.6 5931.17H16270.5Z" fill="#57C06D"/>
<path d="M10355.9 11626.5C10355.9 11787.5 10403.7 11944.8 10493.1 12078.6C10582.5 12212.4 10709.5 12316.6 10858.2 12378.2C11006.9 12439.8 11170.5 12455.9 11328.3 12424.5C11486.1 12393.1 11631.1 12315.6 11744.9 12201.9C11858.6 12088.1 11936.1 11943.1 11967.5 11785.3C11998.9 11627.4 11982.8 11463.9 11921.2 11315.2C11859.6 11166.5 11755.4 11039.5 11621.6 10950.1C11487.8 10860.7 11330.5 10812.9 11169.6 10812.9C10953.8 10813.2 10747 10899 10594.5 11051.5C10442 11204 10356.2 11410.8 10355.9 11626.5ZM11169.6 11355.4C11223.2 11355.4 11275.6 11371.3 11320.2 11401.1C11364.8 11430.9 11399.6 11473.2 11420.1 11522.8C11440.6 11572.3 11446 11626.8 11435.5 11679.5C11425.1 11732.1 11399.2 11780.4 11361.3 11818.3C11323.4 11856.2 11275.1 11882.1 11222.5 11892.5C11169.9 11903 11115.3 11897.6 11065.8 11877.1C11016.2 11856.6 10973.9 11821.8 10944.1 11777.2C10914.3 11732.6 10898.4 11680.2 10898.4 11626.5C10898.5 11554.7 10927.1 11485.7 10977.9 11434.9C11028.7 11384.1 11097.7 11355.5 11169.6 11355.4Z" fill="#57C06D"/>
<path d="M14189.2 11626.5C14189.2 11787.5 14236.9 11944.8 14326.3 12078.6C14415.7 12212.4 14542.8 12316.6 14691.5 12378.2C14840.1 12439.8 15003.7 12455.9 15161.5 12424.5C15319.4 12393.1 15464.3 12315.6 15578.1 12201.9C15691.9 12088.1 15769.4 11943.1 15800.8 11785.3C15832.2 11627.4 15816.1 11463.9 15754.5 11315.2C15692.9 11166.5 15588.6 11039.5 15454.8 10950.1C15321 10860.7 15163.7 10812.9 15002.8 10812.9C14787.1 10813.2 14580.3 10899 14427.8 11051.5C14275.3 11204 14189.5 11410.8 14189.2 11626.5ZM15002.8 11355.4C15056.5 11355.4 15108.9 11371.3 15153.5 11401.1C15198.1 11430.9 15232.8 11473.2 15253.4 11522.8C15273.9 11572.3 15279.3 11626.8 15268.8 11679.5C15258.3 11732.1 15232.5 11780.4 15194.6 11818.3C15156.7 11856.2 15108.3 11882.1 15055.7 11892.5C15003.1 11903 14948.6 11897.6 14899 11877.1C14849.5 11856.6 14807.1 11821.8 14777.3 11777.2C14747.5 11732.6 14731.6 11680.2 14731.6 11626.5C14731.7 11554.7 14760.4 11485.7 14811.2 11434.9C14862 11384.1 14930.9 11355.5 15002.8 11355.4Z" fill="#57C06D"/>
<path d="M8475.62 7118.82H9273.99" stroke="#57C06D" stroke-width="756.788" stroke-linecap="round"/>
<path d="M7078.44 8495.21H9540.09" stroke="#57C06D" stroke-width="756.788" stroke-linecap="round"/>
<path d="M8009.83 9718.58H9273.92" stroke="#57C06D" stroke-width="756.788" stroke-linecap="round"/>
<path d="M18346.7 1143.26H18003.9" stroke="#3591EA" stroke-width="189.197"/>
<path d="M17935.3 731.839V1074.67" stroke="#3591EA" stroke-width="189.197"/>
<path d="M17935.3 1211.79V1554.63" stroke="#3591EA" stroke-width="189.197"/>
<path d="M17866.7 1143.26H17523.9" stroke="#3591EA" stroke-width="189.197"/>
<path d="M13104.4 8216.53C12979.6 8216.37 12859.9 8166.74 12771.7 8078.53C12683.5 7990.31 12633.9 7870.7 12633.7 7745.94H13575C13574.9 7870.72 13525.2 7990.34 13437 8078.56C13348.8 8166.78 13229.1 8216.42 13104.4 8216.53Z" fill="#57C06D"/>
<path d="M13897.9 7750.86C14044.9 7750.86 14164 7631.71 14164 7484.74C14164 7337.76 14044.9 7218.61 13897.9 7218.61C13750.9 7218.61 13631.8 7337.76 13631.8 7484.74C13631.8 7631.71 13750.9 7750.86 13897.9 7750.86Z" fill="#57C06D"/>
<path d="M13897.9 7684.33C14008.1 7684.33 14097.5 7594.97 14097.5 7484.74C14097.5 7374.51 14008.1 7285.14 13897.9 7285.14C13787.7 7285.14 13698.3 7374.51 13698.3 7484.74C13698.3 7594.97 13787.7 7684.33 13897.9 7684.33Z" stroke="#57C06D" stroke-width="189.197"/>
<path d="M14230.4 7484.73H13565.1V7750.86H14230.4V7484.73Z" fill="#E7F6EA"/>
<path d="M12301 7750.86C12448 7750.86 12567.1 7631.71 12567.1 7484.74C12567.1 7337.76 12448 7218.61 12301 7218.61C12154 7218.61 12034.9 7337.76 12034.9 7484.74C12034.9 7631.71 12154 7750.86 12301 7750.86Z" fill="#57C06D"/>
<path d="M12301.2 7684.33C12411.4 7684.33 12500.8 7594.97 12500.8 7484.74C12500.8 7374.51 12411.4 7285.14 12301.2 7285.14C12190.9 7285.14 12101.6 7374.51 12101.6 7484.74C12101.6 7594.97 12190.9 7684.33 12301.2 7684.33Z" stroke="#57C06D" stroke-width="189.197"/>
<path d="M12633.7 7484.73H11968.4V7750.86H12633.7V7484.73Z" fill="#E7F6EA"/>
</svg>
