<svg width="40" height="32" viewBox="0 0 40 32" fill="none" xmlns="http://www.w3.org/2000/svg">
<path fill-rule="evenodd" clip-rule="evenodd" d="M12.7074 25.9995V27.3505V28.7016H12.1091V28.3735C11.9193 28.6168 11.6313 28.7695 11.2398 28.7695C10.4681 28.7695 9.86318 28.1762 9.86318 27.3505C9.86318 26.5255 10.4681 25.9316 11.2398 25.9316C11.6313 25.9316 11.9193 26.0843 12.1091 26.3275V25.9995H12.7074ZM11.3147 26.4854C10.7967 26.4854 10.4797 26.8756 10.4797 27.3505C10.4797 27.8255 10.7967 28.2156 11.3147 28.2156C11.8096 28.2156 12.1437 27.8423 12.1437 27.3505C12.1437 26.8588 11.8096 26.4854 11.3147 26.4854ZM32.9291 27.3505C32.9291 26.8756 33.246 26.4854 33.764 26.4854C34.2596 26.4854 34.593 26.8588 34.593 27.3505C34.593 27.8423 34.2596 28.2156 33.764 28.2156C33.246 28.2156 32.9291 27.8255 32.9291 27.3505ZM35.1553 24.9144V27.3505V28.7016H34.5563V28.3735C34.3665 28.6168 34.0785 28.7695 33.6871 28.7695C32.9154 28.7695 32.3104 28.1762 32.3104 27.3505C32.3104 26.5256 32.9154 25.9316 33.6871 25.9316C34.0785 25.9316 34.3665 26.0843 34.5563 26.3276V24.9144H35.1553ZM20.1344 26.4576C20.5199 26.4576 20.7677 26.6951 20.8309 27.1131L19.4029 27.1131C19.4668 26.7229 19.708 26.4576 20.1344 26.4576ZM18.7758 27.3505C18.7758 26.5081 19.3399 25.9316 20.1465 25.9316C20.9175 25.9316 21.4474 26.5081 21.4533 27.3505C21.4533 27.4295 21.4474 27.5032 21.4414 27.5764L19.3979 27.5764C19.4842 28.0629 19.8354 28.2383 20.221 28.2383C20.4971 28.2383 20.791 28.1361 21.0217 27.9555L21.3149 28.391C20.9808 28.6679 20.6012 28.7695 20.1867 28.7695C19.3629 28.7695 18.7758 28.2098 18.7758 27.3505ZM27.3716 27.3505C27.3716 26.8756 27.6886 26.4854 28.2066 26.4854C28.7015 26.4854 29.0356 26.8588 29.0356 27.3505C29.0356 27.8423 28.7015 28.2156 28.2066 28.2156C27.6886 28.2156 27.3716 27.8255 27.3716 27.3505ZM29.5993 25.9995V27.3505V28.7016H29.001V28.3735C28.8105 28.6168 28.5232 28.7695 28.1317 28.7695C27.36 28.7695 26.7551 28.1762 26.7551 27.3505C26.7551 26.5255 27.36 25.9316 28.1317 25.9316C28.5232 25.9316 28.8105 26.0843 29.001 26.3275V25.9995H29.5993ZM23.9911 27.3505C23.9911 28.1704 24.5724 28.7695 25.4594 28.7695C25.8739 28.7695 26.15 28.6789 26.4492 28.4473L26.1619 27.9724C25.9372 28.1309 25.7013 28.2157 25.4416 28.2157C24.9638 28.2098 24.6126 27.8708 24.6126 27.3505C24.6126 26.8303 24.9638 26.4913 25.4416 26.4854C25.7013 26.4854 25.9372 26.5702 26.1619 26.7287L26.4492 26.2538C26.15 26.0221 25.8739 25.9316 25.4594 25.9316C24.5724 25.9316 23.9911 26.5307 23.9911 27.3505ZM30.982 26.3267C31.1376 26.0893 31.3623 25.9307 31.7076 25.9307C31.8289 25.9307 32.0015 25.9534 32.134 26.0045L31.9495 26.5584C31.8229 26.5073 31.6964 26.4904 31.5751 26.4904C31.1837 26.4904 30.988 26.7389 30.988 27.186V28.7008H30.3889V25.9987H30.982V26.3267ZM15.6657 26.2143C15.3777 26.028 14.981 25.9316 14.5434 25.9316C13.8462 25.9316 13.3974 26.2596 13.3974 26.7967C13.3974 27.2373 13.7315 27.5091 14.347 27.5938L14.6297 27.6333C14.9579 27.6786 15.1128 27.7634 15.1128 27.9161C15.1128 28.1251 14.894 28.2441 14.4854 28.2441C14.0709 28.2441 13.7717 28.1141 13.5701 27.9614L13.288 28.4188C13.6162 28.6563 14.0307 28.7695 14.4795 28.7695C15.2742 28.7695 15.7349 28.402 15.7349 27.8876C15.7349 27.4127 15.3724 27.1642 14.7734 27.0794L14.4914 27.0393C14.2324 27.0057 14.0248 26.9552 14.0248 26.774C14.0248 26.576 14.2205 26.4576 14.5487 26.4576C14.8999 26.4576 15.24 26.5877 15.4067 26.6893L15.6657 26.2143ZM22.6628 26.3267C22.8176 26.0893 23.0424 25.9307 23.3877 25.9307C23.5089 25.9307 23.6816 25.9534 23.8141 26.0045L23.6295 26.5584C23.503 26.5073 23.3765 26.4904 23.2552 26.4904C22.8638 26.4904 22.6681 26.7389 22.6681 27.186V28.7008H22.0697V25.9987H22.6628V26.3267ZM18.2803 25.9995H17.3017V25.1797H16.6967V25.9995H16.1385V26.5366H16.6967V27.7692C16.6967 28.3962 16.9445 28.7695 17.6522 28.7695C17.9119 28.7695 18.2111 28.6906 18.4009 28.5605L18.2282 28.0571C18.0496 28.1587 17.8539 28.2098 17.6984 28.2098C17.3992 28.2098 17.3017 28.0287 17.3017 27.7575V26.5366H18.2803V25.9995ZM9.33334 27.0048V28.7008H8.72838V27.197C8.72838 26.7389 8.53265 26.4846 8.12407 26.4846C7.72669 26.4846 7.45056 26.7337 7.45056 27.2028V28.7008H6.8456V27.197C6.8456 26.7389 6.6446 26.4846 6.24722 26.4846C5.83798 26.4846 5.57306 26.7337 5.57306 27.2028V28.7008H4.96875V25.9987H5.56779V26.3319C5.79251 26.0155 6.07983 25.9307 6.37375 25.9307C6.7942 25.9307 7.09338 26.1119 7.28318 26.4115C7.53689 26.0323 7.89935 25.9249 8.2506 25.9307C8.91883 25.9366 9.33334 26.3662 9.33334 27.0048Z" fill="#231F20"/>
<path d="M24.5341 21.4092H15.4648V5.40625H24.5341V21.4092Z" fill="#FF5F00"/>
<path d="M16.0415 13.4084C16.0415 10.1622 17.5895 7.27049 20.0002 5.40697C18.2373 4.04428 16.0125 3.23094 13.5947 3.23094C7.87053 3.23094 3.23047 7.78748 3.23047 13.4084C3.23047 19.0294 7.87053 23.5859 13.5947 23.5859C16.0125 23.5859 18.2373 22.7726 20.0002 21.4099C17.5895 19.5464 16.0415 16.6547 16.0415 13.4084Z" fill="#EB001B"/>
<path d="M36.7704 13.4084C36.7704 19.0294 32.1303 23.5859 26.4062 23.5859C23.9883 23.5859 21.7635 22.7726 20 21.4099C22.4113 19.5464 23.9593 16.6547 23.9593 13.4084C23.9593 10.1622 22.4113 7.27049 20 5.40697C21.7635 4.04428 23.9883 3.23094 26.4062 3.23094C32.1303 3.23094 36.7704 7.78748 36.7704 13.4084Z" fill="#F79E1B"/>
</svg>
