<svg width="56" height="32" viewBox="0 0 56 32" fill="none" xmlns="http://www.w3.org/2000/svg">
<path fill-rule="evenodd" clip-rule="evenodd" d="M17.1154 23.6011H13.3475L10.522 11.6201C10.3879 11.0689 10.1031 10.5817 9.68427 10.3521C8.63894 9.77498 7.48706 9.31571 6.23047 9.08408V8.62281H12.3003C13.1381 8.62281 13.7664 9.31571 13.8711 10.1204L15.3371 18.7627L19.1032 8.62281H22.7665L17.1154 23.6011ZM24.8604 23.6011H21.3018L24.2321 8.62281H27.7906L24.8604 23.6011ZM32.3946 12.7722C32.4993 11.9655 33.1276 11.5042 33.8606 11.5042C35.0125 11.3884 36.2672 11.62 37.3144 12.1951L37.9427 8.97025C36.8955 8.50898 35.7436 8.27734 34.6983 8.27734C31.2445 8.27734 28.7313 10.3521 28.7313 13.2315C28.7313 15.422 30.5115 16.5722 31.7681 17.2651C33.1276 17.956 33.6511 18.4173 33.5464 19.1082C33.5464 20.1445 32.4993 20.6058 31.4539 20.6058C30.1974 20.6058 28.9408 20.2604 27.7907 19.6833L27.1624 22.9102C28.419 23.4852 29.7785 23.7169 31.0351 23.7169C34.9077 23.8307 37.3144 21.758 37.3144 18.6469C37.3144 14.7291 32.3946 14.4995 32.3946 12.7722ZM49.769 23.6011L46.9435 8.62281H43.9086C43.2803 8.62281 42.652 9.08408 42.4426 9.77498L37.2104 23.6011H40.8737L41.6048 21.4125H46.1058L46.5247 23.6011H49.769ZM44.4313 12.6565L45.4766 18.3015H42.5464L44.4313 12.6565Z" fill="#172B85"/>
</svg>
